<?xml version="1.0" standalone="no"?>
<!DOCTYPE svg PUBLIC "-//W3C//DTD SVG 20010904//EN"
 "http://www.w3.org/TR/2001/REC-SVG-20010904/DTD/svg10.dtd">
<svg version="1.0" xmlns="http://www.w3.org/2000/svg"
 width="1024.000000pt" height="1024.000000pt" viewBox="0 0 1024.000000 1024.000000"
 preserveAspectRatio="xMidYMid meet">
<metadata>
Created by potrace 1.14, written by Peter Selinger 2001-2017
</metadata>
<g transform="translate(0.000000,1024.000000) scale(0.100000,-0.100000)"
fill="#000000" stroke="none">
<path d="M2757 10225 c-19 -14 -24 -30 -5 -19 7 5 8 3 3 -6 -6 -10 -12 -7 -24
9 -9 12 -20 18 -25 14 -7 -8 -11 -9 -37 -12 -5 0 -7 -5 -4 -11 3 -6 -1 -7 -9
-4 -9 3 -14 9 -12 13 8 13 -54 3 -71 -11 -12 -9 -15 -9 -9 0 7 12 -4 16 -32
13 -8 -1 -21 4 -30 11 -15 11 -15 11 0 -7 17 -20 16 -21 -45 -20 -34 0 -65 5
-69 10 -5 6 -8 6 -8 -1 0 -7 -7 -15 -16 -18 -8 -3 -12 -2 -9 4 3 6 1 10 -4 10
-6 0 -11 -4 -11 -10 0 -5 -7 -7 -16 -3 -13 5 -13 7 -2 14 9 6 9 9 1 9 -6 0
-15 -5 -18 -10 -4 -6 -11 -7 -17 -4 -7 5 -8 2 -3 -6 6 -10 4 -12 -10 -7 -9 4
-24 2 -31 -4 -14 -12 -38 -3 -29 11 3 5 1 11 -4 15 -6 3 -8 -3 -6 -15 2 -13
-1 -20 -11 -20 -8 0 -13 4 -12 9 3 8 -5 13 -14 10 -2 0 -10 -2 -18 -4 -8 -2
-24 -7 -34 -11 -15 -6 -18 -4 -12 7 4 8 1 6 -7 -3 -13 -16 -15 -16 -30 -1 -15
15 -17 15 -23 0 -3 -9 -10 -14 -15 -11 -5 3 -7 11 -3 17 3 7 -4 1 -15 -12 -12
-13 -21 -19 -21 -13 0 5 -7 12 -14 15 -10 4 -13 1 -10 -7 3 -7 -2 -13 -10 -13
-8 0 -13 3 -11 7 2 4 -2 7 -10 7 -8 0 -12 -4 -9 -9 3 -4 1 -8 -5 -8 -5 0 -12
6 -14 13 -4 10 -6 10 -6 0 -1 -7 -6 -13 -12 -13 -5 0 -7 6 -4 13 4 6 0 4 -8
-5 -11 -14 -16 -15 -27 -5 -10 10 -10 8 -2 -9 10 -19 9 -21 -15 -16 -20 4 -24
2 -18 -9 5 -8 -1 -5 -13 5 -15 13 -22 15 -22 6 0 -10 -4 -9 -17 1 -10 8 -14 9
-10 2 4 -6 3 -14 -3 -18 -5 -3 -10 0 -10 7 0 9 -3 9 -10 -2 -5 -8 -10 -10 -10
-5 0 6 -8 1 -16 -10 -16 -20 -16 -20 -10 1 4 14 2 21 -8 21 -9 0 -13 -4 -10
-9 3 -4 -6 -8 -20 -8 -14 0 -26 -5 -26 -11 0 -5 6 -7 13 -3 8 5 7 2 -2 -9 -11
-14 -17 -15 -28 -5 -11 9 -16 9 -24 -3 -7 -12 -9 -12 -9 1 -1 12 -3 11 -11 -3
-8 -14 -14 -15 -30 -6 -17 9 -20 7 -17 -8 2 -9 -3 -18 -9 -19 -7 -1 -15 -3
-18 -4 -13 -7 -31 -5 -38 5 -5 6 -7 2 -4 -10 3 -15 -1 -21 -15 -22 -11 -1 -16
3 -12 9 4 7 2 8 -5 4 -9 -6 -9 -11 1 -24 11 -13 10 -15 -4 -9 -10 3 -18 2 -18
-4 0 -6 -5 -7 -12 -3 -7 4 -8 3 -4 -5 4 -6 11 -9 15 -7 3 3 7 -4 7 -14 0 -10
-6 -16 -12 -13 -7 2 -15 -1 -19 -7 -3 -6 -3 -10 2 -9 19 3 23 -2 14 -19 -7
-14 -6 -25 5 -40 10 -15 11 -23 3 -28 -8 -5 -9 -3 -4 7 7 12 6 12 -7 1 -18
-14 -18 -47 0 -47 6 0 14 -3 18 -7 4 -5 0 -8 -9 -8 -9 0 -19 -5 -23 -12 -4 -6
-3 -8 4 -4 10 6 11 1 12 -62 0 -13 4 -21 8 -18 10 6 8 -40 -3 -74 -11 -34 -7
-82 8 -93 8 -6 6 -7 -5 -3 -10 3 -20 0 -24 -6 -4 -7 -3 -8 4 -4 7 4 11 -2 10
-16 -2 -39 2 -49 13 -42 6 3 4 -5 -6 -19 -17 -26 -7 -45 17 -31 7 4 8 3 4 -4
-4 -7 -14 -12 -22 -12 -8 0 -14 -4 -14 -10 0 -5 7 -7 16 -3 15 6 15 4 0 -20
-13 -19 -14 -27 -5 -33 7 -4 9 -3 5 4 -3 6 -2 13 3 16 5 4 8 -2 7 -11 -2 -9
-9 -19 -16 -21 -9 -3 -5 -10 11 -19 15 -9 17 -12 5 -8 -17 5 -17 4 -5 -12 9
-11 10 -14 2 -9 -7 4 -13 3 -13 -3 0 -5 5 -13 11 -17 8 -4 7 -9 -2 -15 -9 -6
-10 -9 -2 -9 13 0 12 -18 -1 -39 -6 -10 -5 -12 2 -7 15 9 16 -36 2 -50 -7 -7
-6 -11 4 -11 8 0 13 4 10 9 -3 4 0 8 5 8 13 0 14 -13 4 -24 -9 -9 -12 -57 -3
-51 3 2 12 0 20 -6 10 -6 11 -9 3 -9 -7 0 -13 -5 -13 -11 0 -5 4 -8 8 -5 5 3
9 -1 9 -9 0 -8 -4 -12 -9 -9 -4 3 -8 1 -8 -5 0 -5 6 -11 13 -14 9 -3 9 -9 -1
-27 -8 -13 -9 -19 -2 -15 7 4 9 -5 7 -29 -3 -20 0 -39 6 -43 6 -3 7 -1 3 5 -4
7 -2 12 4 12 6 0 10 -12 8 -27 -2 -16 4 -34 12 -41 13 -12 13 -13 -2 -8 -22 7
-23 2 -2 -18 12 -12 12 -16 2 -16 -7 -1 -2 -7 12 -16 l25 -15 -25 7 c-22 6
-23 5 -12 -9 10 -12 10 -16 0 -19 -10 -4 -10 -8 -2 -19 11 -13 15 -37 16 -98
0 -13 3 -20 6 -15 4 5 12 10 19 11 12 3 10 -27 -3 -49 -5 -8 -2 -9 11 -4 18 6
18 6 -1 -15 -13 -16 -15 -23 -6 -26 6 -3 12 -11 12 -19 0 -9 -5 -12 -11 -8 -6
3 -3 -6 7 -22 14 -21 14 -26 3 -17 -12 10 -15 8 -15 -7 0 -10 4 -16 8 -14 4 3
8 -4 8 -16 0 -14 -4 -19 -12 -14 -8 4 -10 3 -5 -2 5 -5 14 -9 20 -9 11 0 13
-7 16 -59 1 -13 6 -16 19 -12 14 5 14 4 -2 -9 -20 -15 -20 -15 0 -15 15 0 20
-8 22 -36 1 -26 -1 -33 -10 -28 -7 4 -4 -2 6 -14 14 -17 16 -22 5 -22 -10 -1
-8 -5 5 -15 23 -18 14 -20 -16 -4 -12 7 -18 7 -14 1 3 -6 3 -12 -1 -15 -5 -2
-3 -2 4 -1 7 2 10 -3 7 -10 -3 -8 -11 -13 -17 -13 -40 1 -49 -3 -38 -17 10
-12 8 -13 -8 -9 -12 3 -27 0 -35 -6 -9 -8 -16 -8 -20 -2 -8 12 -36 3 -36 -11
0 -6 8 -4 18 3 15 13 16 12 3 -4 -10 -13 -17 -14 -26 -7 -10 8 -15 8 -21 -1
-5 -8 -3 -10 7 -5 8 4 5 1 -5 -8 -10 -8 -23 -13 -27 -10 -5 3 -6 -2 -3 -10 4
-9 1 -16 -6 -16 -7 0 -10 -7 -7 -15 4 -8 2 -17 -3 -20 -6 -4 -10 -1 -10 5 0 6
-4 9 -10 5 -5 -3 -7 -12 -3 -20 3 -8 0 -15 -7 -15 -9 0 -9 -4 1 -17 12 -15 12
-16 -3 -10 -10 3 -20 2 -23 -3 -4 -6 -1 -10 5 -10 6 0 8 -5 5 -10 -4 -6 -10
-8 -15 -5 -4 3 -14 -3 -21 -12 -10 -11 -10 -14 -2 -9 9 5 11 2 7 -8 -4 -10 -1
-16 7 -16 7 0 9 -3 6 -6 -4 -4 -13 -1 -22 6 -13 11 -14 10 -9 -5 5 -12 4 -16
-4 -11 -9 6 -28 -29 -24 -45 1 -4 -9 -5 -21 -2 -18 4 -19 3 -7 -6 12 -8 12
-11 1 -11 -8 0 -11 -7 -8 -20 3 -13 -2 -25 -14 -33 -10 -8 -16 -17 -12 -20 3
-4 -2 -7 -13 -8 -10 0 -13 -3 -7 -6 10 -3 10 -8 -1 -19 -17 -17 -30 -19 -20
-2 4 7 3 8 -4 4 -6 -4 -9 -13 -5 -21 3 -8 0 -15 -5 -15 -6 0 -9 -9 -7 -21 4
-17 2 -19 -11 -8 -12 10 -13 9 -7 -6 5 -14 3 -17 -10 -12 -11 4 -14 2 -10 -9
3 -8 -1 -14 -8 -14 -11 0 -11 -3 1 -10 12 -8 10 -10 -10 -10 -20 0 -22 -2 -10
-10 13 -8 13 -10 -2 -10 -11 0 -15 -5 -12 -15 6 -14 -7 -20 -30 -16 -5 1 -3
-6 5 -15 8 -10 9 -15 2 -11 -7 5 -17 -2 -24 -15 -11 -21 -11 -22 4 -9 10 7 17
11 17 7 0 -3 -15 -15 -32 -26 -18 -11 -26 -20 -18 -20 12 -1 11 -3 -2 -11 -10
-5 -18 -15 -18 -20 0 -6 5 -7 12 -3 7 4 8 3 4 -4 -4 -7 -13 -12 -21 -12 -8 0
-17 -5 -21 -12 -4 -6 -3 -8 2 -5 5 3 10 -3 10 -13 0 -14 -4 -16 -12 -9 -8 7
-15 6 -20 -2 -4 -8 -3 -9 4 -5 7 4 12 2 12 -3 0 -6 -8 -11 -17 -11 -15 0 -16
-2 -3 -10 13 -8 12 -10 -4 -10 -12 0 -16 -5 -12 -16 4 -11 -1 -18 -14 -21 -16
-4 -18 -8 -9 -19 9 -12 9 -13 -4 -8 -12 4 -14 1 -10 -17 5 -17 3 -20 -7 -14
-10 6 -12 3 -7 -14 4 -18 3 -20 -9 -10 -10 8 -14 8 -15 0 -3 -21 -4 -26 -13
-40 -7 -10 -6 -12 4 -6 9 6 11 4 6 -4 -5 -7 -14 -10 -22 -7 -8 3 -13 0 -11 -7
1 -7 -4 -11 -11 -9 -8 1 -11 -2 -7 -8 5 -8 12 -7 23 1 10 6 4 -1 -13 -17 -16
-15 -23 -25 -14 -22 9 4 16 1 16 -7 0 -8 -9 -13 -19 -12 -10 1 -18 6 -18 11 0
5 -3 7 -6 4 -3 -4 0 -16 6 -28 7 -13 8 -20 2 -16 -6 3 -13 2 -17 -4 -3 -5 0
-10 7 -11 7 0 3 -4 -9 -9 -13 -5 -23 -15 -23 -22 0 -9 3 -9 10 2 7 11 10 11
10 2 0 -7 -10 -17 -22 -22 -13 -5 -17 -9 -10 -9 7 -1 10 -6 7 -11 -4 -6 -11
-7 -17 -4 -5 4 -4 -4 3 -17 12 -23 11 -23 -7 -9 -10 8 -16 11 -12 6 4 -5 0
-15 -8 -23 -12 -12 -12 -18 -2 -31 11 -14 10 -15 -7 -8 -11 4 -16 4 -12 0 4
-4 1 -14 -6 -22 -6 -9 -7 -13 -1 -9 6 3 11 0 11 -7 0 -7 -7 -13 -16 -12 -10 1
-15 -6 -13 -16 2 -10 -3 -18 -10 -19 -7 0 -4 -4 7 -9 11 -5 14 -9 7 -9 -8 -1
-22 -11 -32 -23 -14 -18 -16 -26 -7 -37 9 -12 9 -13 -1 -7 -9 6 -11 1 -8 -18
4 -20 1 -24 -12 -19 -15 6 -15 4 -4 -9 9 -11 10 -18 2 -23 -6 -3 -7 -11 -4
-17 4 -7 2 -8 -5 -4 -9 6 -9 12 1 24 12 15 11 16 -4 4 -18 -15 -20 -32 -3 -44
6 -4 -1 -8 -15 -9 -14 0 -19 -3 -12 -6 17 -7 15 -30 -3 -37 -13 -5 -14 -10 -4
-27 9 -17 8 -20 -2 -14 -9 6 -10 3 -5 -10 5 -14 4 -15 -6 -7 -10 8 -13 3 -12
-22 1 -18 5 -39 9 -47 5 -8 -2 -5 -14 5 -17 16 -20 16 -16 4 4 -9 1 -19 -5
-23 -8 -5 -8 -10 0 -20 8 -10 8 -15 -1 -21 -8 -5 -9 -3 -4 6 5 9 4 11 -4 6 -6
-4 -9 -12 -6 -17 4 -5 0 -9 -7 -9 -9 0 -9 -3 2 -10 13 -9 13 -10 0 -10 -12 0
-12 -2 -1 -9 9 -6 10 -11 2 -15 -6 -4 -11 -4 -12 1 0 4 -4 -1 -8 -12 -5 -12
-4 -26 3 -34 9 -12 8 -13 -7 -8 -15 6 -16 4 -6 -14 7 -13 7 -19 1 -15 -6 3
-13 2 -17 -4 -3 -5 -1 -10 6 -10 9 0 9 -3 0 -14 -9 -11 -9 -15 1 -19 7 -3 3
-6 -9 -6 -13 -1 -23 -6 -23 -12 0 -5 4 -8 8 -5 5 3 9 -1 9 -9 0 -8 -3 -12 -7
-10 -4 2 -12 -6 -18 -19 -8 -17 -7 -27 1 -36 10 -10 8 -11 -7 -6 -19 7 -19 6
-2 -13 12 -13 13 -19 4 -17 -7 0 -13 -2 -13 -5 0 -3 -6 -13 -14 -23 -12 -14
-12 -16 3 -10 9 3 16 1 16 -5 0 -6 -10 -11 -22 -11 -13 0 -18 -4 -12 -8 6 -4
13 -15 17 -24 4 -13 2 -15 -11 -11 -15 6 -16 5 -2 -12 9 -11 10 -16 3 -11 -8
4 -13 1 -13 -9 0 -10 5 -13 12 -9 7 4 8 3 4 -4 -4 -7 -14 -12 -22 -12 -8 0
-12 -5 -9 -10 4 -6 12 -7 18 -3 8 5 8 2 0 -9 -7 -8 -9 -19 -5 -23 4 -5 1 -5
-6 -1 -7 4 -9 12 -6 18 4 7 2 8 -5 4 -6 -4 -9 -12 -6 -17 4 -5 0 -9 -7 -9 -9
0 -10 -3 -2 -8 15 -10 11 -52 -6 -62 -12 -7 -11 -12 4 -29 17 -19 17 -19 -3
-14 -13 3 -21 1 -21 -6 0 -7 4 -10 8 -7 5 3 9 -1 9 -9 0 -8 -4 -12 -9 -9 -4 3
-8 -4 -8 -15 0 -12 -6 -21 -12 -21 -9 0 -8 -4 2 -10 13 -9 13 -10 0 -10 -13 0
-13 -1 0 -10 10 -6 11 -10 3 -10 -7 0 -13 -9 -13 -21 0 -13 4 -18 12 -13 7 4
8 3 4 -5 -5 -7 -16 -9 -28 -5 -18 5 -19 4 -7 -9 8 -8 19 -12 24 -9 6 3 4 -1
-2 -10 -7 -8 -9 -19 -5 -23 4 -5 1 -5 -6 -1 -7 4 -9 13 -5 19 4 7 -1 6 -10 -2
-13 -10 -14 -17 -7 -26 8 -9 7 -15 -2 -18 -8 -3 -6 -6 5 -6 10 -1 15 -6 12
-11 -4 -6 -12 -7 -18 -3 -8 4 -7 1 1 -9 10 -13 10 -18 1 -24 -8 -5 -9 -3 -4 7
8 12 6 12 -8 0 -20 -16 -13 -33 10 -24 15 6 16 5 3 -9 -8 -9 -19 -13 -25 -10
-5 3 -4 -2 4 -11 12 -16 12 -17 -5 -10 -17 6 -18 5 -4 -12 14 -17 13 -18 -4
-12 -15 6 -17 5 -7 -7 9 -11 9 -15 -1 -19 -8 -3 -5 -6 6 -6 20 -1 20 -1 0 -15
-10 -8 -16 -18 -11 -22 4 -4 -1 -16 -10 -27 -10 -11 -13 -17 -6 -14 6 4 14 3
18 -3 3 -5 0 -10 -7 -11 -7 0 -4 -4 7 -9 18 -8 18 -9 2 -9 -15 -1 -16 -4 -6
-22 8 -15 8 -19 0 -15 -6 4 -11 2 -11 -4 0 -6 -5 -8 -11 -4 -8 5 -8 1 0 -14 8
-16 7 -21 -5 -26 -13 -5 -14 -9 -4 -21 10 -12 10 -18 0 -30 -9 -10 -9 -15 -1
-15 6 0 11 -5 11 -11 0 -5 -6 -7 -12 -3 -9 5 -9 2 1 -9 11 -14 11 -17 0 -17
-11 0 -11 -2 1 -10 8 -5 10 -10 4 -10 -6 0 -17 -15 -25 -32 -7 -18 -18 -36
-23 -40 -7 -5 -6 -8 2 -8 8 0 10 -5 6 -12 -11 -18 -12 -48 -2 -54 4 -3 5 -11
1 -17 -12 -20 -13 -40 -1 -54 8 -10 7 -12 -4 -8 -12 5 -14 0 -11 -19 3 -14 10
-26 17 -26 6 0 5 -4 -3 -9 -8 -5 -21 -7 -30 -4 -12 3 -11 1 3 -11 10 -8 24
-12 30 -9 6 4 5 -1 -3 -11 -13 -15 -13 -19 0 -26 10 -7 8 -9 -8 -7 -17 1 -20
5 -13 17 6 12 5 17 -4 17 -10 0 -13 -120 -14 -614 0 -368 3 -613 9 -613 5 0 9
5 9 12 0 6 3 8 7 4 5 -4 1 -13 -8 -19 -21 -16 -18 -66 4 -79 14 -7 15 -13 7
-23 -8 -10 -8 -15 1 -21 8 -4 9 -3 5 4 -10 17 -1 15 13 -2 9 -11 9 -16 0 -22
-8 -5 -10 -3 -4 7 5 8 4 10 0 6 -13 -11 -15 -38 -3 -31 7 5 9 -2 4 -20 -4 -18
-3 -25 4 -21 5 3 10 1 10 -4 0 -6 -7 -11 -16 -11 -8 0 -12 -5 -9 -10 4 -6 12
-8 18 -4 7 3 3 -2 -7 -10 -15 -12 -16 -16 -5 -16 12 0 12 -2 -1 -10 -11 -7
-11 -10 -2 -10 7 0 11 -4 8 -9 -4 -5 0 -12 6 -14 10 -4 9 -6 -1 -6 -11 -1 -10
-6 5 -23 10 -13 12 -17 4 -10 -8 6 -19 12 -25 12 -6 0 -6 -3 1 -8 6 -4 15 -18
19 -31 5 -18 4 -22 -6 -17 -8 4 -6 1 5 -8 10 -8 16 -22 13 -30 -4 -11 -1 -13
11 -9 15 5 14 3 -2 -16 -20 -22 -20 -22 0 -15 17 7 17 6 5 -9 -9 -12 -10 -17
-2 -17 7 0 9 -5 4 -12 -11 -19 -13 -39 -2 -32 5 3 9 -8 9 -25 0 -24 4 -29 20
-26 11 2 20 -1 20 -7 0 -5 -7 -8 -15 -4 -8 3 -15 1 -15 -5 0 -6 -5 -7 -10 -4
-16 10 -11 -1 7 -16 15 -12 16 -12 8 1 -5 9 -4 12 1 7 4 -4 7 -24 5 -44 -2
-27 0 -33 11 -27 10 6 11 4 2 -7 -9 -13 -11 -30 -4 -44 3 -6 5 -12 15 -42 4
-13 12 -20 18 -16 6 3 7 1 3 -6 -6 -9 -11 -9 -24 1 -11 9 -10 5 3 -13 11 -15
23 -25 27 -23 8 5 2 -31 -7 -46 -3 -6 0 -13 8 -16 9 -3 12 -14 9 -30 -4 -20
-1 -23 14 -18 17 6 17 5 -1 -10 -11 -10 -14 -15 -7 -11 7 4 12 0 12 -9 0 -9 5
-16 12 -16 6 0 8 -3 5 -6 -4 -4 -15 -1 -24 7 -16 13 -17 12 -5 -3 10 -13 10
-17 0 -22 -7 -3 -2 -3 11 0 15 4 21 2 17 -4 -4 -6 2 -15 11 -21 10 -6 13 -11
8 -11 -6 0 -16 5 -22 11 -7 7 -12 6 -17 -6 -3 -9 -2 -13 4 -10 19 12 32 -6 18
-23 -10 -13 -8 -13 9 1 l21 18 -8 -36 c-7 -33 -6 -37 16 -45 13 -5 24 -12 24
-16 0 -3 -8 -3 -18 1 -13 5 -14 3 -5 -6 6 -6 9 -19 5 -28 -5 -14 -4 -14 13 -1
17 14 18 14 6 -7 -10 -20 -9 -22 6 -16 16 6 16 5 4 -10 -11 -14 -11 -17 0 -17
11 0 11 -2 -1 -10 -10 -6 -11 -10 -2 -10 6 0 12 -7 12 -16 0 -9 5 -12 12 -8
10 6 10 4 1 -7 -16 -17 -17 -33 -1 -23 8 5 9 2 5 -9 -4 -10 -2 -16 5 -14 6 1
13 -4 15 -11 3 -8 -1 -10 -14 -6 -17 6 -17 6 1 -8 10 -8 16 -20 12 -26 -3 -6
-2 -13 3 -17 6 -3 8 -12 4 -20 -3 -8 0 -15 7 -15 6 0 8 4 5 10 -3 5 -2 10 3
10 5 0 12 -9 15 -20 3 -13 1 -18 -6 -13 -7 4 -6 -1 2 -10 7 -9 10 -17 5 -17
-4 0 -3 -5 4 -12 15 -15 16 -31 0 -22 -7 4 -8 3 -4 -5 4 -6 12 -9 17 -6 5 4 9
-1 9 -9 0 -9 4 -16 8 -16 4 0 9 -12 10 -27 1 -16 11 -35 22 -43 17 -13 18 -18
8 -29 -11 -11 -11 -13 0 -7 9 6 11 1 8 -18 -3 -16 -1 -24 5 -20 6 3 13 -3 16
-15 3 -11 9 -18 14 -15 5 3 9 0 9 -5 0 -6 -6 -11 -12 -11 -10 0 -10 -2 0 -9 7
-4 14 -17 15 -29 0 -11 5 -18 11 -15 5 4 7 -1 3 -10 -4 -11 -2 -14 9 -10 10 4
14 -3 14 -26 0 -17 5 -31 11 -31 8 0 7 -6 -2 -17 -10 -11 -10 -14 -2 -9 12 7
18 -5 14 -28 -1 -5 5 -4 13 3 12 10 14 9 9 -8 -3 -12 0 -28 7 -36 6 -8 9 -19
5 -25 -3 -5 1 -10 9 -10 15 0 17 -7 20 -65 1 -13 7 -19 18 -17 13 2 18 -4 18
-18 0 -13 4 -19 11 -14 8 4 8 0 0 -15 -7 -13 -8 -21 -2 -21 6 0 8 -7 5 -15 -5
-11 -2 -13 12 -8 13 5 16 3 11 -10 -4 -10 -2 -17 5 -17 6 0 8 -3 5 -6 -3 -4
-2 -16 4 -27 8 -14 8 -18 0 -13 -6 4 -11 2 -11 -3 0 -6 10 -11 23 -12 12 0 16
-3 10 -6 -10 -3 -9 -9 3 -20 8 -9 13 -24 11 -34 -3 -10 2 -20 10 -23 9 -4 11
-2 7 6 -4 7 -3 8 5 4 9 -6 9 -11 -1 -24 -7 -9 -8 -13 -3 -10 15 9 38 -19 24
-28 -8 -4 -1 -17 19 -34 17 -15 29 -30 25 -33 -3 -4 2 -10 11 -13 14 -5 15 -9
4 -15 -9 -6 -7 -9 8 -9 16 0 21 -6 20 -22 -1 -14 4 -22 12 -20 6 1 13 -4 14
-10 0 -7 2 -18 2 -23 2 -18 73 -105 80 -97 4 3 4 -2 0 -12 -5 -14 -4 -17 4
-12 8 5 12 -2 12 -19 0 -15 4 -24 10 -20 5 3 10 -1 10 -9 0 -9 5 -16 10 -16 6
0 10 -8 10 -19 0 -10 8 -25 17 -32 15 -12 16 -12 8 1 -5 9 -5 12 1 7 9 -9 10
-13 13 -42 0 -8 8 -15 16 -15 8 0 15 -5 15 -11 0 -5 -6 -7 -12 -4 -7 4 -6 0 3
-7 9 -7 18 -22 20 -33 3 -11 11 -20 19 -20 8 0 16 -9 18 -20 5 -24 32 -56 42
-50 5 3 7 -6 5 -20 -2 -19 3 -27 21 -31 13 -3 21 -10 19 -15 -7 -10 16 -49 28
-49 4 0 5 6 1 13 -4 6 -3 8 2 4 4 -4 9 -18 9 -30 0 -14 6 -22 17 -21 10 1 14
-4 11 -12 -3 -8 0 -14 7 -14 6 0 9 -4 6 -8 -3 -5 6 -16 19 -26 14 -10 22 -23
18 -29 -4 -6 0 -8 11 -4 14 6 16 3 10 -15 -6 -21 -5 -22 11 -8 17 14 18 13 12
-2 -4 -12 -2 -15 7 -12 8 3 17 0 22 -7 5 -8 3 -10 -6 -4 -9 5 -11 4 -6 -3 4
-7 14 -12 22 -12 8 0 14 -5 14 -11 0 -5 6 -7 13 -3 8 5 7 2 -2 -9 -8 -10 -11
-20 -7 -24 3 -3 6 -1 6 6 0 7 5 9 10 6 6 -4 8 -10 5 -15 -3 -4 4 -6 15 -3 14
4 20 0 20 -11 0 -9 5 -16 11 -16 5 0 7 4 4 10 -3 6 1 7 9 4 16 -6 20 -16 17
-44 -2 -12 0 -12 7 -1 7 10 11 10 17 1 6 -9 10 -9 16 1 5 8 9 9 9 4 0 -7 74
-9 213 -8 226 3 240 4 232 11 -9 9 26 34 41 28 10 -4 13 -2 8 6 -5 8 -2 9 9 5
10 -4 16 -2 14 5 -1 5 7 12 18 14 11 1 21 8 23 13 2 6 8 11 13 11 6 0 7 -5 3
-12 -4 -7 -3 -8 4 -4 7 4 12 17 12 29 0 18 2 19 10 7 5 -8 10 -10 10 -4 0 7
11 15 25 18 15 4 25 14 25 24 0 9 10 23 23 31 21 13 21 13 7 -6 -8 -10 -5 -9
7 4 12 13 27 23 33 23 6 0 9 3 7 8 -3 4 1 13 9 20 8 7 14 10 14 7 0 -3 11 5
23 19 13 14 27 23 30 19 4 -3 7 -1 7 6 0 7 7 11 14 8 9 -4 17 2 21 14 4 10 11
19 16 19 6 0 7 4 4 10 -3 5 0 7 8 4 8 -3 18 0 23 7 5 8 3 10 -6 4 -9 -5 -11
-4 -6 3 4 7 16 12 27 12 11 0 22 7 25 15 4 8 10 12 15 9 5 -3 9 2 9 10 0 9 3
15 8 15 4 -1 15 -1 26 0 16 1 17 3 5 19 -7 9 -10 14 -5 10 11 -9 67 12 61 22
-6 9 34 36 48 32 4 -1 6 1 5 5 -4 20 15 41 33 38 11 -2 17 0 14 6 -4 5 -1 9 6
9 7 0 10 3 6 6 -8 8 16 33 26 27 4 -2 7 3 7 12 0 9 5 13 10 10 6 -3 10 -1 10
5 0 6 5 8 10 5 6 -4 9 -1 8 7 -2 7 2 12 9 11 8 -2 10 4 6 14 -4 11 -3 14 5 9
7 -4 12 -3 12 3 0 5 14 25 30 43 22 23 29 27 24 13 -6 -17 -4 -17 10 3 10 12
22 20 27 17 5 -3 6 1 3 9 -4 11 0 16 14 16 12 0 25 6 29 13 4 7 16 13 26 12 9
0 18 5 19 10 2 12 24 35 33 35 3 0 3 -6 0 -12 -4 -7 0 -5 8 4 8 10 18 14 22
10 5 -4 5 1 2 11 -4 10 -3 16 2 12 5 -3 12 -1 16 5 4 6 10 8 15 5 5 -3 20 9
35 27 15 18 24 28 21 22 -3 -7 1 -15 10 -18 8 -3 12 -2 9 3 -3 5 -1 12 5 16 5
3 10 1 10 -4 0 -6 5 -11 11 -11 5 0 8 4 5 8 -3 5 1 9 9 9 8 0 15 -4 15 -8 0
-4 7 -10 16 -13 14 -5 15 -4 4 9 -11 13 -10 14 4 9 9 -3 16 -10 16 -15 0 -5 5
-9 11 -9 5 0 7 6 3 13 -6 10 -4 10 7 0 7 -7 17 -13 22 -13 4 0 5 6 1 13 -5 9
-4 9 6 0 11 -10 18 -9 34 5 11 9 16 11 12 5 -4 -8 -1 -13 9 -13 9 0 25 -10 36
-23 10 -12 18 -17 19 -10 0 6 -6 14 -12 16 -8 4 -9 6 -2 6 6 1 17 -6 24 -14
15 -18 34 -20 24 -2 -6 9 -4 9 7 1 19 -15 82 -27 74 -14 -3 6 1 7 9 4 9 -3 13
-11 9 -17 -4 -6 -1 -7 8 -2 19 12 49 14 55 3 3 -4 10 -6 15 -3 5 3 6 -1 3 -10
-6 -13 1 -16 42 -16 69 1 84 -1 84 -12 0 -5 12 -6 28 -2 53 14 83 12 77 -3 -4
-12 -3 -13 10 -2 12 10 16 9 21 -5 5 -13 9 -14 15 -3 5 8 9 9 9 2 0 -7 17 -12
38 -13 47 -1 70 -5 78 -14 4 -4 12 -7 18 -7 6 0 4 5 -4 11 -11 7 -7 9 17 5 17
-2 37 -7 44 -12 9 -5 10 -2 5 11 -5 14 -4 16 7 7 8 -7 17 -9 20 -5 4 3 7 2 7
-4 0 -11 29 -11 47 0 6 4 14 3 18 -3 3 -5 12 -10 18 -10 7 0 6 4 -3 10 -12 8
-11 10 7 10 12 0 25 -5 28 -10 5 -8 11 -8 20 0 9 8 15 8 20 0 4 -7 12 -7 25 0
13 7 21 7 25 0 3 -5 1 -10 -6 -10 -18 0 -5 -10 20 -15 12 -2 19 0 16 6 -4 5
-11 6 -17 3 -7 -4 -8 -2 -4 4 5 9 13 9 27 2 12 -7 19 -7 19 -1 0 12 32 2 42
-13 5 -7 8 -7 8 2 0 7 8 12 18 10 10 -2 16 2 14 10 -1 8 2 11 7 7 6 -3 9 -11
7 -18 -1 -7 -1 -9 1 -4 3 4 9 5 13 2 5 -3 12 0 16 6 5 8 3 9 -6 4 -9 -5 -11
-4 -6 4 4 6 12 9 17 5 5 -3 7 -9 4 -14 -3 -5 -1 -11 4 -14 5 -4 13 -1 17 5 5
8 3 9 -6 4 -9 -5 -11 -4 -6 3 9 15 12 15 30 -4 15 -14 16 -14 16 5 0 12 5 21
11 21 5 0 8 -4 4 -9 -9 -15 36 -25 49 -11 8 10 8 11 -4 5 -9 -5 -12 -4 -7 1
13 14 89 15 80 1 -4 -7 1 -6 10 2 9 7 17 10 17 6 0 -4 8 -1 17 6 9 8 14 9 10
3 -4 -7 0 -14 8 -18 8 -3 14 -2 14 2 -3 18 3 21 25 12 15 -5 27 -5 35 3 6 6
11 7 11 3 0 -5 6 -3 14 3 11 9 16 9 21 0 6 -8 10 -7 16 2 6 10 9 11 9 2 0 -7
5 -13 11 -13 5 0 7 6 3 13 -6 9 -4 9 8 -1 14 -11 18 -10 28 7 6 12 16 21 23
20 9 0 9 -2 0 -6 -7 -2 -13 -12 -13 -20 0 -12 4 -11 19 6 14 16 21 18 24 9 4
-9 6 -10 6 -1 1 7 8 10 18 6 12 -5 14 -3 8 8 -8 12 -6 12 9 0 15 -13 19 -13
27 0 6 10 9 11 9 1 0 -7 5 -10 11 -6 6 3 31 6 55 6 33 -1 43 2 37 11 -5 9 -3
9 8 0 15 -12 55 -10 68 2 3 4 -7 4 -22 1 -17 -3 -25 -1 -21 5 3 6 8 8 11 5 3
-3 14 -1 24 4 13 8 21 6 29 -7 9 -14 10 -14 7 -2 -4 12 2 16 25 17 16 0 37 7
46 14 12 9 14 10 8 1 -4 -7 -2 -13 3 -13 6 0 11 6 11 13 0 9 2 9 9 -1 7 -11 9
-10 15 3 3 9 11 13 16 10 6 -4 18 -1 26 6 8 6 27 12 42 13 15 1 33 5 41 10 9
6 12 5 8 -1 -3 -5 1 -10 9 -10 8 0 13 6 10 14 -7 18 -1 16 20 -4 16 -16 16
-16 10 4 -6 18 -3 21 19 19 14 -2 25 0 25 4 0 4 15 6 33 5 17 -2 38 2 46 8 12
9 13 9 7 0 -10 -18 0 -16 32 4 26 17 27 17 12 -1 -14 -18 -14 -18 7 -6 12 8
19 18 16 24 -4 5 1 7 10 3 10 -3 17 -3 17 1 0 5 14 7 30 6 17 -1 30 3 30 9 0
7 5 5 10 -3 9 -13 10 -13 10 0 0 12 2 12 9 2 6 -10 10 -9 14 7 3 12 11 21 19
21 10 0 9 -3 -2 -10 -12 -7 -10 -9 7 -7 12 0 19 5 16 11 -4 5 1 7 10 3 12 -4
17 -1 17 11 0 10 3 13 8 7 9 -13 42 -16 42 -4 0 6 8 5 19 -1 14 -7 22 -7 27 2
5 7 3 8 -6 3 -9 -5 -11 -4 -6 3 5 9 13 9 28 1 15 -8 19 -8 13 1 -4 7 -1 10 8
8 9 -2 23 6 32 17 16 19 16 19 10 1 -6 -19 -5 -19 13 -3 10 9 21 15 24 12 9
-9 60 14 54 24 -4 5 2 7 13 4 10 -3 22 0 25 6 4 7 15 7 31 1 16 -6 27 -6 31 2
5 7 3 8 -6 3 -9 -5 -11 -4 -6 4 4 6 13 8 19 4 18 -11 38 -12 31 -2 -3 5 0 9 6
9 6 0 9 4 5 9 -3 5 -1 12 4 15 5 4 13 1 17 -5 5 -8 3 -9 -6 -4 -9 5 -11 4 -6
-4 6 -9 11 -9 21 -1 20 17 58 21 67 7 5 -8 8 -6 8 6 0 11 4 15 12 11 7 -5 9
-2 5 8 -4 12 0 15 19 13 13 -1 24 3 24 9 0 6 5 4 10 -4 7 -11 10 -11 10 -2 0
7 4 11 9 8 4 -3 17 2 27 10 10 9 13 13 7 9 -7 -3 -13 -1 -13 4 0 6 7 11 16 11
9 0 12 5 8 12 -4 7 -3 8 4 4 7 -4 21 -9 33 -11 18 -4 19 -2 7 12 -12 15 -11
15 10 4 22 -12 23 -11 17 11 -7 23 -7 23 9 3 12 -16 16 -17 17 -5 1 8 1 19 0
23 -1 5 3 6 9 2 6 -3 7 -12 3 -18 -4 -7 0 -6 10 2 9 7 24 11 32 7 11 -4 14 -2
9 6 -5 8 -2 9 9 5 16 -6 23 9 18 37 -1 5 5 4 13 -3 9 -7 13 -18 10 -25 -3 -6
4 0 15 13 12 13 27 21 35 18 8 -3 24 4 35 15 13 11 29 17 38 14 10 -4 13 -2
10 7 -3 7 3 13 14 13 15 0 16 -3 6 -16 -10 -13 -10 -13 4 -3 9 7 18 10 22 7 3
-3 3 5 0 18 -5 23 -5 23 10 3 16 -20 16 -20 12 2 -2 13 1 25 6 29 5 3 9 2 8
-3 -3 -19 2 -33 12 -33 5 0 7 5 4 10 -6 10 7 14 34 11 8 -2 10 2 5 11 -5 9 -2
8 11 -2 11 -9 16 -10 11 -2 -5 8 0 12 15 12 12 0 20 3 16 6 -7 7 17 34 29 34
5 0 3 -5 -4 -12 -7 -7 -12 -17 -12 -22 0 -6 4 -5 9 2 4 7 20 14 35 16 15 1 32
9 39 16 10 12 9 12 -5 1 -13 -9 -18 -10 -18 -2 0 14 41 31 54 23 5 -3 7 1 4
10 -5 11 2 14 27 13 26 -2 32 1 27 13 -3 10 -1 13 7 8 6 -4 18 -2 26 4 8 6 18
9 23 6 11 -7 9 25 -3 44 -7 12 -6 13 6 4 8 -5 28 -9 44 -8 40 3 39 2 24 21 -9
10 -9 14 -2 10 14 -9 63 2 63 13 0 9 -20 8 -37 -3 -6 -4 -15 -2 -19 4 -4 7 -3
9 4 5 6 -3 13 -2 16 3 4 5 19 7 35 5 16 -3 32 0 36 6 3 5 15 10 26 10 11 0 18
4 14 9 -5 9 2 17 40 49 13 11 19 11 32 0 15 -11 16 -10 10 10 -3 13 -3 21 0
18 3 -3 14 -1 24 5 15 8 18 6 12 -8 -5 -15 -3 -15 10 2 9 11 17 25 17 32 0 7
6 10 13 7 7 -2 23 4 35 14 17 15 19 21 9 32 -9 10 -9 11 2 5 8 -4 17 -2 23 6
8 11 9 10 4 -4 -5 -15 -3 -16 14 -7 11 6 20 18 20 27 0 13 3 13 15 3 13 -11
14 -10 9 3 -4 12 -1 14 15 10 13 -3 21 -1 21 6 0 7 -4 10 -8 7 -5 -3 -9 1 -9
9 0 8 4 12 8 9 4 -2 14 3 22 11 22 21 33 19 14 -3 -15 -16 -15 -19 -2 -19 8 0
13 2 10 5 -8 8 25 33 35 27 6 -3 7 1 4 9 -5 12 1 16 20 16 24 0 25 2 16 20 -8
16 -8 20 2 18 7 -2 12 3 10 10 -1 6 2 12 8 12 13 0 13 -13 -1 -27 -9 -9 -7
-11 5 -9 9 1 22 8 29 16 9 10 9 11 0 6 -7 -4 -13 -2 -13 3 0 6 6 11 14 11 19
0 40 26 26 35 -5 3 -10 12 -10 18 0 9 2 9 8 0 4 -6 19 -10 34 -10 20 2 24 5
16 15 -7 8 -15 9 -23 2 -8 -7 -12 -5 -12 4 0 9 8 13 23 10 18 -3 22 -1 18 11
-5 11 -2 13 12 8 13 -5 15 -3 9 8 -7 11 -5 11 10 -1 10 -8 16 -10 12 -3 -4 6
-3 14 3 18 6 4 8 10 5 15 -3 5 0 12 6 16 8 4 9 3 5 -4 -4 -7 -3 -12 3 -12 5 0
11 10 13 22 2 15 9 22 21 22 20 -2 23 12 5 20 -7 4 -3 4 10 2 20 -4 21 -2 10
11 -12 15 -11 15 10 4 12 -6 22 -8 21 -4 -4 21 2 33 16 33 8 0 15 4 15 10 0 5
-8 7 -17 3 -10 -3 -16 -4 -13 -2 42 36 52 42 45 29 -8 -13 -6 -13 8 -2 9 8 22
11 29 7 7 -4 5 0 -5 8 -19 16 -13 26 15 22 12 -2 15 4 13 21 -2 19 0 22 11 13
11 -9 14 -8 14 0 0 7 4 9 10 6 6 -4 7 1 3 11 -5 14 -3 16 12 11 16 -7 16 -5 4
10 -9 11 -10 14 -1 9 7 -4 12 -2 12 4 0 6 5 8 12 4 6 -4 8 -3 5 3 -9 15 19 36
35 27 10 -6 10 -4 0 9 -12 14 -11 16 7 12 18 -3 20 -1 11 15 -8 15 -7 17 13
13 12 -3 19 -3 15 2 -12 12 21 38 42 32 11 -3 18 -1 15 3 -3 5 -1 11 5 15 5 3
10 16 10 28 0 18 2 19 10 7 8 -13 10 -12 10 3 0 10 4 16 9 12 6 -3 14 3 20 12
6 10 11 14 11 9 0 -5 9 -1 20 9 16 14 17 21 8 32 -9 11 -8 13 3 11 8 -2 17 -7
21 -13 5 -6 8 -3 9 8 3 31 4 35 13 44 5 4 6 3 2 -4 -3 -6 -2 -14 4 -18 5 -3
10 1 10 9 0 9 5 16 12 16 21 0 47 31 41 48 -5 14 -2 14 18 -3 13 -11 18 -13
12 -5 -18 20 -16 30 5 23 14 -6 15 -4 5 9 -13 15 -8 28 11 28 6 0 4 -5 -4 -10
-13 -8 -12 -10 3 -10 9 0 17 4 17 8 0 5 11 15 25 22 18 10 24 19 19 33 -4 14
-3 17 7 12 9 -6 11 -3 6 9 -6 14 -3 17 9 12 11 -4 15 -2 11 8 -3 8 1 20 8 26
8 7 12 16 9 21 -7 13 19 7 28 -6 7 -9 11 12 11 57 0 10 2 16 6 14 3 -3 22 9
41 26 19 16 30 27 23 24 -6 -4 -15 -2 -18 4 -4 6 -3 10 2 9 4 -1 17 -1 28 0
17 1 18 3 5 11 -13 8 -13 10 1 10 18 0 52 34 43 43 -3 3 -1 14 6 24 11 17 11
17 6 0 -3 -11 -2 -15 4 -12 6 3 10 11 10 17 0 6 8 17 18 24 13 11 14 13 1 9
-9 -4 -16 0 -16 9 0 8 6 12 15 8 11 -4 13 -2 7 9 -7 12 -6 12 7 1 13 -10 18
-10 24 -1 4 7 3 9 -3 6 -6 -4 -13 2 -16 14 -4 16 -3 18 9 8 11 -9 14 -7 14 10
0 11 3 20 8 20 18 -3 32 2 30 10 -2 5 6 17 17 26 19 16 19 16 -4 5 -17 -9 -26
-9 -35 0 -8 8 -6 9 8 4 15 -6 17 -4 11 6 -5 9 -4 11 3 6 7 -4 16 3 23 18 7 14
17 22 25 19 9 -3 12 4 9 29 -3 23 -2 29 5 18 7 -11 12 -12 20 -4 8 8 6 16 -7
30 -17 16 -17 17 0 11 9 -3 17 -2 17 4 0 6 4 8 9 4 10 -6 24 11 27 32 1 7 9
20 18 29 16 16 20 28 16 53 -1 12 1 13 13 2 12 -9 17 -9 23 0 5 8 3 9 -6 4 -8
-5 -11 -3 -8 6 3 8 10 13 16 12 8 -2 8 5 1 24 -9 24 -8 25 7 12 15 -12 16 -10
10 21 -5 28 -4 31 4 12 l10 -22 20 20 c27 27 26 38 -2 14 -14 -12 -18 -13 -10
-3 6 9 10 18 7 20 -2 3 5 6 17 6 25 2 38 20 31 42 -4 14 -3 14 5 1 6 -8 8 -19
5 -25 -4 -7 -2 -7 5 0 16 15 19 50 4 47 -8 -1 -11 2 -7 8 3 6 11 7 17 4 7 -5
9 0 6 14 -4 15 -2 19 8 15 8 -3 11 -10 7 -16 -3 -5 -1 -7 4 -4 6 4 10 21 9 38
-1 16 2 33 6 35 5 3 6 15 3 27 -5 17 -4 19 4 7 10 -13 15 -8 12 12 0 4 7 4 17
1 15 -6 16 -5 2 13 -8 10 -10 16 -6 12 18 -15 35 12 26 38 -9 22 -8 24 10 14
25 -13 26 -7 3 16 -16 16 -16 16 4 10 17 -5 20 -2 19 16 -1 13 4 29 11 36 7 8
11 18 8 23 -4 5 1 6 10 3 17 -7 17 16 0 28 -6 5 -3 8 7 8 9 0 20 5 24 12 5 7
3 8 -6 3 -8 -5 -11 -3 -8 6 3 8 10 13 16 12 7 -2 9 4 5 14 -4 9 -2 14 3 10 5
-3 11 4 12 16 5 48 9 61 23 65 11 3 11 1 -1 -7 -8 -6 -10 -11 -4 -11 19 0 24
12 12 34 -10 19 -10 20 5 8 14 -12 16 -11 12 7 -2 12 -7 26 -10 31 -4 6 1 7
12 3 15 -5 16 -4 7 8 -9 11 -9 17 2 27 7 7 16 12 20 11 3 0 9 3 12 7 4 4 1 3
-7 -1 -11 -6 -13 -4 -6 11 4 10 7 27 7 36 0 10 4 21 10 24 7 5 8 2 3 -7 -7
-12 -6 -12 7 -1 9 7 15 22 13 33 -2 10 2 19 8 19 7 0 6 4 -3 10 -10 6 -11 10
-2 10 6 0 11 6 10 13 -2 6 3 11 10 9 8 -1 16 7 19 18 3 11 10 20 15 20 12 0
37 60 33 81 -2 10 3 20 11 23 10 4 13 2 8 -7 -5 -9 -4 -9 7 1 11 10 14 78 14
352 l0 340 -22 0 c-13 0 -23 5 -23 11 0 5 4 7 10 4 6 -4 7 1 3 11 -4 11 -8 13
-11 6 -5 -17 -22 -15 -22 3 0 8 -4 15 -8 15 -12 0 -43 -35 -37 -42 3 -2 -2 -5
-10 -5 -13 0 -13 3 -2 16 23 26 27 49 12 61 -12 10 -16 9 -21 -4 -3 -9 -10
-13 -15 -10 -5 3 -9 0 -9 -7 0 -7 -3 -9 -6 -6 -4 4 -1 13 5 21 9 11 9 16 0 22
-8 4 -9 3 -5 -4 5 -8 -1 -11 -18 -10 -15 1 -26 6 -26 11 0 5 7 7 14 4 10 -4
13 -1 9 9 -3 8 -8 12 -11 10 -3 -3 -12 0 -20 7 -13 10 -15 9 -9 -7 6 -16 5
-17 -8 -6 -8 7 -13 16 -10 19 2 4 -2 8 -10 8 -18 0 -18 -2 -4 -30 9 -20 9 -20
-4 -4 -8 9 -20 17 -26 17 -8 0 -7 5 3 16 19 19 21 28 4 17 -19 -11 -58 -11
-51 0 3 5 0 7 -8 5 -8 -3 -13 -11 -11 -17 1 -7 -2 -9 -8 -6 -8 5 -6 13 5 25
15 16 14 18 -6 23 -11 3 -18 10 -14 16 3 6 1 11 -4 11 -6 0 -11 -5 -11 -11 0
-8 -5 -8 -15 1 -8 7 -15 9 -15 5 0 -5 -9 2 -19 14 -11 12 -23 23 -28 24 -4 1
-7 5 -5 10 1 4 -2 7 -8 7 -5 0 -10 -4 -10 -9 0 -5 -10 -11 -23 -13 -15 -3 -24
0 -24 8 0 7 7 10 16 7 14 -4 14 -3 1 5 -8 6 -18 8 -24 5 -5 -4 -7 1 -2 12 5
15 4 16 -9 5 -13 -11 -19 -8 -17 11 1 3 -6 6 -13 6 -11 0 -12 -4 -4 -13 6 -7
9 -19 6 -26 -4 -8 -6 -7 -6 5 -1 17 -12 22 -25 10 -15 -15 -35 -10 -33 9 1 17
3 18 13 3 8 -10 14 -12 19 -6 3 6 0 11 -7 11 -10 0 -9 3 2 11 13 9 13 10 -1 6
-9 -3 -22 0 -29 6 -10 9 -11 9 -6 0 10 -18 -2 -16 -21 2 -8 8 -19 13 -24 10
-5 -4 -9 -1 -9 5 0 7 -8 9 -19 5 -13 -4 -27 2 -41 17 -16 17 -20 19 -14 5 3
-10 15 -22 25 -28 11 -5 19 -14 19 -20 0 -6 -7 -3 -16 5 -8 9 -20 14 -25 11
-5 -4 -9 0 -9 8 0 7 -17 21 -37 31 -34 16 -36 16 -22 0 13 -16 12 -16 -8 -6
-12 7 -29 9 -37 6 -12 -4 -16 0 -16 15 0 16 -6 21 -26 21 -21 0 -25 -4 -19
-17 5 -14 4 -15 -6 -6 -10 10 -9 16 2 30 13 17 13 17 -12 1 -26 -17 -27 -17
-23 5 2 12 2 16 -2 10 -4 -10 -11 -10 -25 -2 -15 8 -25 7 -37 -3 -9 -7 -13 -8
-9 -2 4 7 0 17 -8 24 -8 7 -12 17 -8 24 4 7 1 6 -9 -1 -8 -7 -19 -9 -23 -5 -5
4 -5 1 -1 -5 4 -7 2 -13 -3 -13 -12 0 -15 26 -3 33 4 2 2 2 -5 1 -7 -2 -15 1
-19 7 -4 6 -11 6 -20 -2 -7 -6 -11 -16 -7 -22 4 -6 1 -7 -6 -2 -9 5 -10 10 -2
18 18 18 13 31 -6 16 -11 -10 -14 -10 -9 -1 4 7 1 12 -9 12 -9 0 -14 -4 -10
-9 3 -5 1 -12 -4 -16 -6 -3 -8 3 -6 15 4 18 -9 25 -37 21 -4 0 -5 6 -1 15 5
14 3 15 -15 5 -26 -14 -42 -14 -22 0 12 9 11 10 -7 6 -16 -3 -23 0 -23 9 0 8
-3 13 -7 13 -29 -5 -53 2 -47 14 6 9 5 9 -8 0 -8 -7 -19 -9 -23 -5 -5 4 -5 1
-1 -6 4 -7 12 -9 18 -6 7 4 8 2 4 -4 -4 -7 -2 -12 5 -12 7 0 9 -3 6 -6 -4 -4
-13 -2 -20 4 -8 7 -17 9 -20 5 -4 -3 -7 1 -7 11 0 9 -4 14 -10 11 -5 -3 -10
-1 -10 4 0 6 -5 11 -11 11 -5 0 -7 -5 -4 -11 4 -6 -2 -5 -13 2 -12 7 -18 17
-16 21 3 4 0 8 -6 8 -6 0 -8 5 -4 12 5 8 2 9 -9 5 -13 -5 -17 -1 -17 18 0 14
-5 25 -11 25 -6 0 -8 9 -4 20 5 16 3 19 -11 13 -14 -5 -15 -3 -5 16 10 17 9
22 -2 27 -9 3 -13 16 -11 35 2 16 -1 29 -7 29 -6 0 -8 8 -4 19 4 12 0 21 -11
25 -15 6 -15 4 -3 -11 11 -15 11 -16 -1 -6 -16 15 -25 57 -10 48 6 -3 7 1 4 9
-3 9 -10 16 -16 16 -5 0 -8 8 -6 18 2 9 -2 16 -9 15 -7 -2 -10 4 -7 12 4 8 2
15 -3 15 -5 0 -8 12 -7 28 1 33 -15 62 -32 55 -8 -3 -11 2 -7 16 3 13 1 21 -8
21 -7 0 -9 3 -6 7 4 3 1 13 -6 21 -10 13 -9 14 3 8 8 -5 3 3 -12 16 -21 19
-25 27 -16 36 9 9 9 12 -1 12 -7 0 -9 5 -6 10 3 6 1 10 -5 10 -6 0 -8 5 -5 10
3 6 -1 10 -9 10 -10 0 -13 6 -10 15 4 8 1 15 -5 15 -6 0 -8 6 -5 14 3 9 -5 22
-20 32 -21 13 -24 19 -15 30 8 10 8 14 0 14 -6 0 -11 7 -11 15 0 9 -7 18 -15
21 -8 4 -12 10 -9 15 3 5 2 15 -3 22 -8 12 -13 32 -15 54 -1 9 -5 10 -14 2 -9
-7 -12 -6 -10 8 2 10 -4 24 -13 31 -9 8 -11 11 -4 8 20 -10 2 34 -19 45 -11 6
-17 17 -14 24 3 8 -5 22 -17 31 -15 11 -17 15 -4 11 9 -4 17 -2 17 3 0 6 -9
10 -19 10 -15 0 -19 6 -17 30 1 18 -3 30 -10 30 -7 0 -16 5 -20 12 -5 7 -3 8
7 3 11 -7 12 -6 2 7 -7 8 -9 19 -5 23 4 5 1 5 -6 0 -10 -5 -13 0 -11 21 2 16
-1 30 -5 31 -14 2 -28 32 -21 43 4 6 3 10 -2 9 -27 -5 -35 2 -29 29 3 15 3 21
0 15 -8 -18 -24 -16 -24 3 0 8 -7 22 -16 31 -8 9 -13 22 -10 29 3 9 0 11 -11
7 -11 -4 -14 -2 -9 5 7 11 -6 17 -27 13 -5 -1 -6 3 -2 9 3 6 11 7 17 4 7 -5 8
-2 4 5 -5 7 -15 10 -23 7 -8 -3 -11 -2 -8 3 3 5 1 12 -5 16 -6 4 -8 11 -5 16
4 5 -1 12 -10 15 -9 4 -14 12 -12 18 3 7 -6 22 -19 35 -13 13 -24 27 -24 33 0
5 -4 7 -9 4 -5 -3 -12 1 -15 10 -3 8 -2 12 3 9 5 -3 12 -1 16 5 3 5 -3 10 -14
10 -11 0 -23 5 -27 12 -5 7 -2 9 7 4 8 -4 6 -1 -3 7 -10 8 -18 18 -18 24 0 5
-7 18 -16 29 -8 10 -12 12 -8 4 4 -9 -2 -6 -13 5 -11 11 -18 26 -16 32 3 7 -2
16 -11 19 -9 3 -16 14 -16 24 0 10 -10 20 -21 23 -15 4 -20 11 -15 23 5 12 2
15 -9 10 -13 -5 -14 -2 -4 15 6 12 7 19 2 16 -5 -3 -15 -2 -23 4 -12 7 -11 9
5 9 19 1 19 1 -1 13 -12 7 -19 19 -16 27 3 8 1 12 -2 8 -12 -11 -45 24 -38 40
3 10 1 13 -6 8 -8 -5 -10 -2 -6 8 4 11 0 16 -10 16 -10 0 -16 9 -16 23 0 18
-2 19 -10 7 -8 -13 -10 -12 -10 3 0 10 -7 20 -15 23 -8 4 -12 10 -9 15 3 5 -3
9 -12 9 -10 0 -15 3 -11 6 3 4 -1 13 -9 21 -8 8 -12 19 -9 23 3 5 -4 7 -15 5
-13 -3 -20 1 -20 12 0 9 -8 22 -17 30 -10 8 -12 11 -4 7 10 -5 12 -3 7 5 -6 9
-11 9 -24 -1 -11 -9 -14 -9 -9 -1 9 14 -27 55 -39 45 -4 -4 -4 -2 0 5 8 15
-14 53 -31 53 -6 0 -15 5 -19 12 -5 7 -3 8 7 3 12 -8 12 -6 0 8 -7 9 -17 15
-21 12 -5 -3 -11 4 -15 15 -3 11 -13 20 -21 20 -8 0 -14 7 -14 16 0 8 -4 13
-9 10 -5 -3 -12 1 -15 10 -3 8 -2 12 4 9 6 -3 10 -4 10 -2 0 2 -18 16 -40 31
-22 14 -39 32 -37 39 1 6 -4 11 -10 10 -7 -2 -13 1 -13 7 0 5 -7 7 -15 3 -9
-3 -15 -2 -14 3 3 18 -1 37 -7 31 -8 -8 -33 16 -27 26 2 4 -3 7 -12 7 -9 0
-13 5 -10 10 3 6 -4 10 -17 10 -18 0 -20 2 -8 10 12 8 11 10 -7 10 -13 0 -22
3 -22 8 1 4 1 14 0 22 -1 13 -2 13 -11 0 -5 -8 -10 -10 -10 -4 0 16 -56 75
-64 67 -4 -4 -4 0 0 10 4 11 1 17 -9 17 -8 0 -17 4 -19 9 -1 5 -10 11 -18 13
-8 2 -19 11 -25 22 -5 10 -14 18 -18 17 -5 -1 -17 7 -26 18 -10 12 -24 21 -30
21 -7 0 -10 4 -7 9 8 12 -23 23 -37 14 -7 -4 -6 0 1 10 12 14 11 16 -7 12 -14
-3 -18 1 -14 11 4 10 0 12 -13 7 -12 -4 -15 -3 -10 5 4 7 1 12 -9 12 -8 0 -18
7 -21 15 -4 8 -10 12 -15 9 -5 -3 -9 2 -9 11 0 11 -5 15 -16 11 -8 -3 -12 -2
-9 4 3 6 -4 10 -17 10 -18 0 -20 2 -8 10 11 7 11 10 2 10 -7 0 -10 5 -7 10 4
6 3 10 -2 9 -16 -4 -43 13 -43 28 0 8 -4 11 -10 8 -5 -3 -10 -1 -10 5 0 7 -7
9 -16 6 -12 -4 -14 -1 -9 14 5 15 2 18 -15 15 -16 -3 -20 0 -16 10 3 9 -1 15
-9 15 -8 0 -15 7 -15 15 0 8 -5 15 -11 15 -5 0 -7 -6 -3 -12 5 -9 3 -9 -9 1
-9 7 -15 17 -12 21 3 5 1 11 -4 14 -5 4 -12 2 -16 -4 -4 -6 -11 -8 -16 -4 -6
3 -5 12 3 22 8 10 9 13 1 9 -6 -4 -15 -2 -18 4 -4 5 -14 8 -22 4 -13 -4 -13
-3 -4 9 9 11 8 14 -6 12 -10 0 -17 5 -15 12 1 8 -2 11 -8 7 -6 -3 -8 -11 -5
-16 4 -5 1 -9 -4 -9 -6 0 -11 10 -12 23 0 12 -3 16 -6 10 -3 -10 -8 -9 -20 2
-9 9 -24 13 -37 10 -11 -2 -15 -2 -9 1 18 8 -4 29 -40 38 -16 4 -27 13 -27 24
0 15 -2 15 -10 2 -8 -13 -10 -12 -10 3 0 10 -4 16 -9 13 -5 -4 -12 0 -14 6 -4
10 -8 9 -17 -2 -9 -12 -10 -11 -5 8 6 19 3 22 -24 22 -25 0 -31 4 -31 21 0 11
-5 17 -10 14 -6 -4 -7 -11 -4 -17 4 -7 2 -8 -5 -4 -6 4 -9 12 -6 17 4 5 -3 9
-14 9 -12 0 -21 5 -21 11 0 6 -7 9 -15 6 -8 -4 -17 -2 -20 4 -4 5 -11 7 -16 4
-5 -4 -9 -1 -9 4 0 14 13 14 26 1 7 -7 11 -6 11 4 0 8 -3 15 -6 14 -40 -4 -99
29 -83 48 4 4 0 3 -9 -3 -12 -10 -18 -8 -29 7 -8 11 -20 20 -28 20 -7 0 -10 5
-6 11 5 8 1 8 -14 0 -16 -8 -21 -7 -26 4 -3 9 -12 12 -23 8 -17 -7 -17 -6 0
11 21 21 21 23 2 23 -8 0 -12 -4 -9 -9 10 -15 -9 -8 -23 10 -8 9 -12 11 -8 5
3 -7 1 -13 -4 -13 -6 0 -11 10 -11 23 0 18 -2 19 -10 7 -8 -13 -10 -12 -10 3
0 14 -5 17 -22 11 -21 -6 -22 -5 -8 12 8 10 10 16 6 12 -5 -4 -15 0 -23 10 -8
9 -12 11 -8 5 3 -7 1 -13 -4 -13 -6 0 -11 5 -11 10 0 12 -26 14 -33 3 -2 -5
-2 -2 -1 5 2 6 -2 12 -8 12 -7 0 -6 5 2 15 11 14 10 14 -14 6 -25 -10 -32 -5
-27 22 1 5 -3 6 -9 2 -6 -3 -7 -11 -4 -17 4 -6 2 -8 -4 -4 -5 3 -13 0 -16 -6
-3 -7 -3 -3 0 10 5 19 2 23 -13 21 -10 -1 -29 3 -43 8 -14 6 -29 8 -34 5 -5
-3 -6 0 -2 6 4 6 14 9 24 6 14 -5 14 -4 2 4 -8 6 -18 8 -22 6 -4 -3 -8 -1 -8
4 0 6 -7 13 -16 16 -15 6 -15 4 -3 -11 13 -16 12 -17 -3 -4 -10 7 -24 11 -33
7 -8 -3 -14 0 -12 7 1 7 -4 11 -11 9 -8 -1 -11 2 -7 8 7 12 -6 13 -21 3 -5 -5
0 1 11 11 18 18 18 19 1 12 -10 -3 -25 -1 -34 6 -13 11 -15 10 -9 -4 10 -29
-2 -21 -23 15 -11 17 -20 27 -20 21 0 -7 -7 -15 -16 -18 -8 -3 -13 -2 -10 3 8
12 -20 22 -41 15 -16 -5 -16 -4 -3 6 13 10 12 11 -5 7 -11 -2 -27 3 -34 11
-12 12 -11 13 10 8 21 -6 22 -5 6 4 -10 7 -25 9 -33 6 -8 -3 -14 -1 -14 5 0 6
-7 9 -15 5 -8 -3 -15 -1 -15 4 0 6 -6 10 -14 10 -8 0 -16 5 -18 11 -4 12 -58
20 -58 8 0 -5 -7 -6 -15 -3 -8 4 -12 11 -9 16 4 6 -2 8 -15 3 -15 -5 -21 -2
-21 9 0 10 -9 16 -25 16 -14 0 -25 6 -25 13 0 7 -3 8 -8 2 -9 -13 -35 -18 -27
-5 3 5 -1 10 -9 10 -9 0 -16 -5 -16 -12 0 -6 -3 -8 -6 -5 -4 4 -1 13 6 22 11
13 10 14 -5 9 -12 -5 -16 -4 -12 3 5 8 -3 10 -23 7 -18 -3 -30 -1 -30 6 0 6
-4 9 -9 5 -5 -3 -12 -1 -16 4 -3 6 -13 7 -22 4 -10 -4 -14 -2 -10 4 4 6 -4 10
-21 9 -15 0 -26 5 -25 11 1 6 -6 9 -18 6 -16 -5 -18 -8 -7 -14 9 -6 9 -9 1 -9
-7 0 -17 9 -23 20 -6 11 -15 18 -20 15 -5 -3 -11 -1 -15 5 -4 6 -11 8 -16 4
-15 -9 0 -23 21 -19 12 2 18 0 15 -5 -3 -5 -15 -7 -27 -5 -23 5 -40 24 -32 36
2 4 -9 4 -26 -1 -22 -6 -34 -5 -44 6 -11 11 -16 11 -19 1 -4 -9 -6 -8 -6 2 -1
11 -4 11 -18 0 -11 -10 -14 -10 -9 -1 9 14 -5 16 -22 2 -6 -6 -10 -7 -7 -4 7
10 -15 45 -25 39 -4 -3 -11 0 -13 5 -3 6 -4 5 -3 -2 2 -7 9 -12 15 -10 7 1 10
-2 6 -8 -5 -8 -11 -8 -19 -1 -7 6 -16 7 -20 3 -4 -4 -6 -2 -4 5 2 9 -4 15 -14
12 -21 -6 -37 -5 -32 2 3 5 -4 9 -16 9 -12 0 -18 -4 -15 -10 3 -6 -1 -7 -10
-4 -14 6 -14 8 2 20 16 12 16 12 -6 7 -16 -4 -22 -2 -18 4 5 7 0 9 -12 6 -10
-3 -22 0 -26 7 -5 8 -10 8 -21 -1 -10 -8 -14 -8 -14 0 0 6 -5 11 -11 11 -5 0
-7 -6 -4 -12 4 -7 0 -5 -7 4 -13 15 -15 15 -26 0 -7 -9 -10 -11 -6 -3 5 11 3
13 -9 8 -10 -3 -17 -2 -17 3 0 6 5 10 12 10 6 0 9 3 6 6 -3 3 -15 0 -27 -8
-18 -11 -23 -10 -36 7 -9 11 -14 13 -10 5 4 -8 -1 -6 -9 4 -16 20 -16 20 -16
0 -1 -18 -1 -18 -11 -1 -8 14 -14 16 -25 6 -11 -9 -15 -8 -20 4 -3 9 -13 13
-25 10 -10 -3 -16 -9 -13 -14 3 -5 -2 -6 -11 -3 -14 6 -14 8 2 20 16 13 15 13
-8 5 -29 -10 -63 4 -52 22 4 7 -1 6 -11 -2 -15 -13 -19 -13 -27 0 -8 10 -9 7
-5 -11 3 -14 3 -19 0 -12 -3 6 -12 12 -20 12 -8 0 -14 4 -14 8 0 4 -9 8 -20 9
-11 1 -18 -2 -15 -7 3 -5 -5 -7 -17 -4 -13 3 -27 6 -33 7 -5 2 -15 6 -22 10
-6 4 -15 2 -19 -4 -5 -8 -3 -9 6 -4 8 5 11 4 6 -3 -4 -6 -13 -9 -21 -6 -8 4
-12 10 -9 15 3 5 -2 6 -10 3 -9 -3 -13 -11 -9 -18 4 -6 0 -6 -9 2 -11 9 -18 9
-23 3 -4 -7 -13 -6 -26 2 -16 10 -21 9 -29 -3 -5 -8 -10 -10 -10 -4 0 13 -38
12 -59 0 -10 -7 -12 -6 -6 4 6 10 4 11 -6 4 -23 -14 -51 -15 -44 -2 4 7 0 5
-7 -4 -13 -15 -15 -15 -27 0 -10 14 -11 15 -7 1 2 -9 -2 -16 -10 -16 -7 0 -11
4 -8 9 3 4 0 8 -6 8 -6 0 -13 -7 -16 -15 -5 -11 -10 -13 -19 -5 -6 5 -15 6
-20 2 -4 -4 -2 4 5 18 13 25 13 25 -8 7 -12 -11 -22 -14 -26 -8 -4 6 -13 8
-21 5 -8 -4 -13 -10 -10 -14 3 -4 -9 -6 -26 -5 -17 2 -35 9 -40 16 -7 12 -9
11 -9 -1 0 -13 -1 -13 -10 0 -9 13 -10 13 -10 0 0 -12 -2 -13 -9 -1 -7 11 -9
11 -14 0 -5 -12 -6 -12 -6 0 -1 11 -4 11 -18 0 -9 -8 -14 -9 -10 -3 11 19 -21
25 -38 8 -8 -9 -15 -11 -15 -5 0 6 -12 11 -26 11 -17 0 -23 4 -18 13 4 7 3 9
-2 4 -5 -5 -9 -13 -9 -18 0 -5 -3 -9 -7 -9 -5 0 -10 0 -13 0 -3 0 0 10 6 23
l12 22 -25 -23 c-13 -12 -28 -19 -32 -15 -4 4 -11 1 -17 -7 -7 -12 -8 -9 -7 9
2 16 -3 25 -15 26 -9 2 -15 -1 -11 -6 3 -5 11 -6 17 -2 8 5 8 2 0 -9 -7 -8 -9
-19 -5 -23 4 -5 1 -5 -6 -1 -7 4 -9 12 -6 18 5 7 1 9 -9 5 -10 -4 -16 -2 -14
5 3 15 -26 18 -46 3z m32 -17 c-5 -10 -11 -18 -12 -18 -2 0 -3 8 -4 18 -1 10
5 19 12 19 10 0 11 -5 4 -19z m-69 2 c0 -5 -5 -10 -11 -10 -5 0 -7 5 -4 10 3
6 8 10 11 10 2 0 4 -4 4 -10z m-106 -8 c3 -5 -1 -9 -9 -9 -8 0 -12 4 -9 9 3 4
7 8 9 8 2 0 6 -4 9 -8z m610 -18 c3 -8 2 -12 -4 -9 -6 3 -10 10 -10 16 0 14 7
11 14 -7z m-1052 -6 c-14 -14 -44 -20 -36 -7 3 5 9 7 14 4 5 -3 11 -1 15 5 3
5 9 10 13 10 3 0 1 -5 -6 -12z m1652 -4 c3 -8 2 -12 -4 -9 -6 3 -10 10 -10 16
0 14 7 11 14 -7z m-1767 -16 c-3 -8 -6 -5 -6 6 -1 11 2 17 5 13 3 -3 4 -12 1
-19z m2163 -62 c0 -2 -7 -7 -16 -10 -8 -3 -12 -2 -9 4 6 10 25 14 25 6z
m-2810 -271 c0 -2 -6 -5 -13 -8 -8 -3 -14 1 -14 8 0 7 6 11 14 8 7 -3 13 -6
13 -8z m3867 -77 c-3 -8 -6 -5 -6 6 -1 11 2 17 5 13 3 -3 4 -12 1 -19z m-3832
-668 c-3 -5 -12 -10 -18 -10 -7 0 -6 4 3 10 19 12 23 12 15 0z m22 -165 c0 -8
-4 -12 -9 -9 -5 3 -6 10 -3 15 9 13 12 11 12 -6z m3050 -165 c-10 -13 -10 -13
4 -3 9 7 20 9 24 5 5 -4 5 -1 1 6 -4 7 -1 12 8 12 8 0 17 -6 20 -12 3 -7 3 -3
0 10 -3 12 -1 22 5 22 6 0 10 -3 10 -7 -3 -20 2 -24 16 -13 8 7 15 9 15 4 0
-5 4 -3 9 4 7 11 9 10 14 -3 5 -10 3 -14 -5 -9 -7 5 -8 3 -4 -5 6 -9 12 -8 26
4 15 14 18 14 30 0 7 -9 15 -13 18 -10 3 2 -1 11 -7 19 -11 13 -9 13 12 3 14
-6 23 -15 21 -19 -3 -5 0 -8 5 -8 6 0 11 6 12 13 0 8 2 8 6 -2 5 -11 7 -11 14
0 7 12 9 12 9 0 0 -10 3 -11 14 -2 11 9 15 8 21 -6 6 -17 7 -17 21 1 8 11 14
14 14 8 0 -7 7 -12 16 -12 9 0 12 5 8 13 -5 8 -2 8 9 -2 14 -11 17 -11 18 0 0
11 2 11 6 1 4 -10 8 -10 21 0 13 11 14 11 7 -1 -6 -11 -4 -13 8 -8 9 3 19 1
23 -5 4 -7 3 -8 -4 -4 -7 4 -12 3 -12 -2 0 -6 7 -13 16 -16 10 -4 13 -2 8 6
-5 8 -2 9 11 4 15 -5 16 -4 5 9 -11 14 -10 15 11 7 13 -5 36 -8 51 -7 17 1 25
-2 21 -11 -2 -6 1 -15 8 -20 8 -4 10 -3 5 4 -10 16 36 16 53 0 11 -11 12 -10
6 1 -6 11 -4 13 9 8 9 -4 14 -3 11 2 -11 19 13 20 33 1 15 -14 22 -16 26 -7 5
9 8 9 12 -2 5 -11 8 -11 16 0 8 11 11 11 15 1 4 -10 8 -10 21 0 9 7 13 8 10 3
-4 -6 6 -10 22 -10 16 -1 27 2 25 5 -2 4 2 7 10 7 8 0 12 -4 9 -9 -8 -13 10
-10 25 5 9 7 11 7 8 1 -4 -7 0 -15 9 -18 8 -3 13 -2 10 2 -3 5 4 8 15 7 11 -1
25 -8 30 -16 7 -11 9 -9 9 9 0 20 2 21 14 9 8 -7 25 -13 38 -12 12 1 28 -5 35
-14 10 -14 11 -12 7 9 -2 14 -2 19 2 12 3 -6 11 -9 16 -6 7 4 8 2 4 -4 -10
-16 7 -15 23 1 9 7 11 7 8 1 -7 -12 12 -24 46 -31 11 -2 16 1 11 8 -3 6 6 3
22 -7 15 -11 25 -13 21 -6 -5 6 -4 12 0 12 5 0 15 -6 22 -12 12 -11 13 -10 7
6 -5 15 -1 13 18 -7 28 -30 38 -34 30 -12 -4 8 -1 15 5 15 10 0 15 -12 13 -31
-1 -3 6 -6 13 -6 11 0 12 4 3 14 -6 7 -8 16 -4 20 3 3 6 1 6 -5 0 -7 7 -12 16
-12 9 0 12 -5 8 -12 -5 -7 -3 -8 7 -2 22 13 38 13 33 0 -2 -6 4 -12 15 -12 12
0 17 6 15 16 -3 8 1 5 7 -7 12 -23 39 -32 39 -12 0 5 4 8 10 4 5 -3 7 -13 4
-23 -5 -15 -4 -14 6 1 11 17 13 17 30 2 12 -11 20 -13 25 -6 3 6 1 11 -4 11
-6 0 -11 5 -11 10 0 6 8 5 19 -2 11 -7 18 -15 16 -19 -3 -3 7 -5 21 -3 17 1
33 -6 47 -22 20 -23 55 -35 42 -14 -3 6 1 7 9 4 9 -3 14 -10 11 -14 -3 -4 2
-11 11 -14 8 -3 12 -11 8 -17 -4 -8 -3 -9 5 -5 9 6 9 11 -1 23 -12 15 -11 15
9 3 12 -8 20 -17 17 -21 -2 -4 1 -11 7 -15 7 -4 9 -3 6 3 -8 13 20 26 35 16 7
-4 8 -1 4 6 -5 7 -15 10 -24 6 -9 -3 -13 -3 -9 2 5 4 22 8 39 9 17 1 27 -1 22
-5 -5 -3 -10 -12 -12 -20 -3 -12 -1 -12 14 0 12 9 15 9 10 2 -5 -9 -1 -13 11
-13 10 0 25 -9 33 -19 7 -11 17 -18 21 -15 4 2 10 0 14 -6 4 -6 11 -8 16 -4 6
3 13 -3 16 -15 3 -14 13 -21 29 -21 13 0 24 -5 24 -10 0 -6 3 -9 8 -9 21 4 34
-3 29 -15 -4 -10 0 -12 14 -9 11 3 19 0 19 -7 0 -8 8 -10 21 -7 16 4 18 3 9
-8 -8 -9 -3 -14 22 -20 18 -4 36 -7 39 -7 4 1 6 -6 5 -16 -1 -12 5 -16 22 -14
12 2 22 -2 22 -7 0 -6 7 -11 15 -11 8 0 15 -5 15 -11 0 -5 -5 -7 -12 -3 -6 4
-8 3 -5 -4 4 -5 15 -9 24 -8 20 3 43 -16 43 -35 0 -8 6 -6 18 4 15 14 19 15
19 2 0 -8 -5 -11 -10 -8 -6 3 -7 2 -4 -4 4 -6 18 -9 32 -7 23 2 24 0 13 -14
-10 -12 -10 -14 0 -8 15 9 54 -2 47 -14 -3 -4 2 -11 11 -14 10 -4 13 -2 8 7
-5 8 -2 7 9 -2 13 -10 14 -17 6 -27 -9 -11 -5 -11 21 -4 29 8 30 8 18 -7 -9
-12 -9 -15 0 -9 6 4 12 2 12 -3 0 -6 9 -11 20 -11 11 0 20 -4 20 -10 0 -5 9
-10 19 -10 11 0 27 -10 35 -22 9 -12 16 -19 16 -14 0 5 6 3 13 -3 8 -6 17 -9
21 -6 3 3 2 -1 -4 -7 -5 -7 -10 -17 -10 -23 0 -5 5 -3 10 5 7 11 12 12 18 4 4
-7 16 -13 27 -15 11 -3 20 -11 20 -19 0 -8 7 -15 15 -15 8 -1 14 -7 12 -15 -3
-11 0 -11 12 0 14 10 16 9 16 -8 0 -20 24 -37 49 -33 7 1 11 -1 8 -6 -3 -4 2
-17 10 -28 12 -15 14 -16 10 -3 -4 12 -2 15 8 12 8 -3 14 -9 13 -12 -2 -19 3
-32 13 -32 5 0 7 6 3 13 -6 8 -3 8 9 -1 9 -8 16 -17 15 -20 -2 -21 4 -32 18
-32 8 0 12 -4 9 -10 -3 -5 0 -10 8 -10 8 0 18 -7 21 -16 3 -9 11 -12 18 -8 9
5 8 2 -1 -9 -8 -10 -11 -20 -7 -24 3 -3 6 -1 6 6 0 9 4 9 14 -1 8 -7 11 -17 8
-23 -3 -5 2 -4 12 4 9 8 16 10 15 5 -3 -19 1 -47 7 -41 10 9 37 -22 31 -36 -3
-8 4 -14 16 -14 21 -2 39 -22 31 -35 -5 -8 11 -12 30 -9 5 1 6 -5 3 -14 -4
-10 -1 -15 11 -15 15 0 15 -2 2 -11 -12 -9 -11 -10 6 -6 13 3 21 -1 21 -9 0
-7 -5 -10 -10 -7 -6 3 -7 1 -3 -5 4 -7 15 -12 24 -13 10 0 12 -3 5 -6 -10 -3
-10 -7 0 -18 9 -9 14 -10 20 -1 5 6 7 2 4 -11 -3 -12 -2 -22 2 -21 20 2 30 -4
25 -16 -3 -8 0 -17 5 -21 6 -3 9 -11 6 -16 -3 -5 0 -6 7 -4 16 6 51 -48 40
-61 -4 -4 0 -3 9 4 14 11 16 9 11 -14 -3 -15 -1 -25 4 -22 5 3 14 0 21 -7 10
-11 10 -15 0 -18 -7 -3 -1 -6 13 -7 l25 -2 -25 -8 c-24 -8 -24 -8 -2 -9 13 -1
22 -7 22 -17 0 -8 3 -13 8 -11 4 2 18 -9 32 -26 14 -17 19 -28 13 -24 -7 5
-13 4 -13 -2 0 -5 9 -12 20 -16 11 -3 19 -9 19 -13 -3 -22 2 -32 14 -26 8 6 8
3 -1 -9 -12 -14 -11 -16 9 -12 17 3 20 2 11 -7 -13 -13 2 -38 24 -38 8 0 11
-6 7 -17 -4 -10 -2 -14 4 -10 15 9 106 -98 111 -130 2 -15 7 -30 13 -31 5 -2
7 -8 4 -12 -6 -10 29 -32 37 -25 3 3 5 -1 5 -9 0 -8 -6 -12 -15 -8 -9 3 -6 -4
6 -16 24 -24 37 -29 26 -9 -4 6 -3 8 1 4 16 -14 14 -36 -3 -31 -10 3 -7 -1 6
-7 23 -13 30 -39 10 -39 -7 0 2 -10 19 -22 33 -23 43 -40 21 -34 -7 1 -10 1
-5 -1 4 -3 4 -10 0 -16 -4 -6 0 -8 10 -4 20 7 29 -4 17 -23 -5 -8 -3 -19 6
-27 8 -8 12 -19 9 -24 -4 -5 -1 -9 6 -9 10 0 10 -3 1 -12 -7 -7 -12 -17 -12
-22 0 -6 5 -4 10 4 7 11 10 11 10 2 0 -8 5 -10 13 -6 7 5 6 0 -3 -11 -9 -11
-10 -16 -2 -11 7 4 12 2 12 -4 0 -6 6 -8 13 -4 10 6 10 4 0 -7 -7 -7 -13 -17
-13 -21 0 -4 6 -7 13 -5 6 1 11 -4 10 -10 -2 -7 1 -13 6 -13 5 0 12 6 15 13 2
6 3 1 2 -13 -2 -14 4 -33 12 -43 15 -16 14 -17 -4 -12 -17 6 -17 6 -1 -5 9 -6
22 -8 27 -5 6 4 7 -1 3 -11 -4 -12 -3 -15 5 -10 8 5 10 2 6 -8 -3 -9 -10 -13
-15 -10 -5 3 -6 -2 -3 -10 3 -9 9 -14 13 -11 4 2 8 -2 8 -10 0 -8 -4 -12 -8
-10 -3 3 -9 -4 -12 -16 -4 -16 -3 -18 8 -9 10 8 15 8 21 -1 4 -7 3 -9 -3 -6
-6 4 -13 0 -17 -8 -3 -8 0 -15 7 -16 7 0 3 -4 -8 -9 -11 -5 -14 -9 -7 -9 24
-2 55 -39 53 -65 -4 -56 -6 -64 -12 -60 -4 2 -11 0 -14 -6 -5 -8 -11 -8 -19 0
-7 5 -25 11 -39 12 -22 2 -26 6 -21 23 4 15 3 16 -4 6 -6 -8 -15 -10 -23 -5
-11 6 -11 4 0 -10 12 -15 12 -17 0 -14 -8 2 -13 -2 -12 -8 1 -6 -5 -11 -12
-11 -12 0 -12 3 -2 16 10 12 9 14 -5 8 -10 -3 -18 -3 -18 1 0 4 -11 12 -25 19
-14 6 -23 7 -19 2 3 -5 0 -9 -5 -9 -6 0 -11 5 -11 12 0 6 -7 3 -16 -8 -8 -10
-13 -13 -9 -6 3 6 1 13 -4 13 -6 1 -17 2 -23 3 -7 1 -19 -5 -26 -14 -10 -13
-11 -13 -6 3 5 15 1 17 -36 14 -34 -3 -44 0 -47 14 -4 14 -10 16 -29 9 -14 -6
-26 -6 -29 1 -4 5 -10 7 -15 4 -4 -3 -10 2 -14 10 -3 8 -12 12 -21 9 -8 -3
-13 -9 -10 -13 2 -4 -2 -8 -10 -8 -13 0 -13 3 0 17 14 15 12 17 -19 15 -19 0
-33 2 -30 6 2 4 -3 9 -11 12 -10 4 -12 1 -8 -11 4 -10 -2 -7 -15 8 -12 14 -21
18 -19 10 2 -8 2 -12 -1 -7 -2 4 -21 16 -43 26 -21 11 -37 16 -34 12 2 -4 -3
-8 -11 -8 -9 0 -13 6 -10 14 3 8 2 12 -3 8 -5 -3 -12 1 -15 7 -3 7 -3 2 0 -12
5 -24 4 -24 -8 -4 -9 15 -22 20 -45 19 -17 -1 -31 1 -30 4 1 3 -2 6 -8 6 -5 0
-9 -4 -7 -10 1 -5 -7 1 -19 15 -16 19 -19 21 -15 6 5 -16 4 -17 -9 -6 -8 7
-12 17 -8 23 3 6 1 7 -5 3 -6 -4 -9 -14 -6 -24 3 -9 -1 -7 -8 6 -11 18 -16 20
-27 10 -11 -11 -12 -9 -7 12 3 14 3 19 0 12 -3 -6 -11 -9 -16 -6 -7 4 -8 2 -4
-4 4 -7 3 -12 -2 -12 -6 0 -13 7 -16 16 -3 8 -10 12 -16 9 -26 -16 -52 -14
-57 5 -3 11 -9 17 -14 15 -4 -3 -5 -13 -2 -22 6 -15 5 -16 -9 -3 -9 8 -13 20
-10 25 3 6 -3 3 -13 -5 -17 -14 -18 -13 -12 2 3 10 1 20 -5 24 -7 4 -8 3 -4
-4 9 -15 1 -15 -27 0 -19 10 -20 9 -10 -4 10 -12 10 -15 -2 -15 -8 0 -15 5
-15 12 0 6 -9 11 -20 12 -11 1 -20 -4 -20 -10 0 -8 -3 -7 -9 2 -5 8 -16 11
-24 8 -9 -3 -21 1 -27 9 -15 17 -40 18 -41 2 0 -7 -5 -3 -11 10 -6 12 -15 22
-20 22 -5 0 -6 -6 -2 -12 6 -10 4 -10 -7 0 -7 6 -17 12 -22 12 -4 0 -5 -6 -1
-12 6 -10 4 -10 -7 0 -7 6 -17 12 -22 12 -4 0 -5 -6 -2 -12 4 -7 -2 -3 -13 9
-18 20 -20 21 -37 5 -18 -16 -18 -16 -4 2 13 18 12 19 -9 14 -12 -4 -20 -3
-17 2 3 4 -2 11 -11 14 -8 3 -12 2 -9 -4 3 -6 2 -10 -4 -10 -5 0 -12 4 -15 9
-3 4 -30 8 -61 8 -30 0 -58 3 -62 8 -5 4 -1 5 7 0 8 -5 12 -4 7 0 -10 12 -38
15 -32 4 4 -5 -1 -6 -9 -3 -9 3 -14 11 -13 16 1 6 -8 11 -20 13 -13 1 -20 -3
-16 -9 3 -6 0 -5 -8 2 -7 6 -17 12 -22 12 -4 0 -5 -6 -1 -12 5 -9 2 -9 -9 1
-14 11 -17 11 -18 0 0 -11 -2 -11 -6 -1 -4 10 -8 10 -21 0 -12 -10 -14 -10 -8
0 4 7 1 12 -8 12 -9 0 -16 -6 -17 -12 -1 -7 -5 -2 -9 12 -7 21 -8 22 -9 5 -2
-20 -2 -20 -16 -1 -15 20 -15 20 -15 0 -1 -18 -1 -18 -15 0 -12 15 -19 17 -44
8 -27 -10 -29 -9 -26 11 4 20 3 21 -9 5 -14 -18 -32 -25 -21 -9 3 5 0 13 -6
17 -8 4 -9 3 -5 -4 4 -7 2 -12 -3 -12 -6 0 -11 5 -11 10 0 6 -4 10 -10 10 -5
0 -7 -8 -4 -17 5 -15 4 -15 -6 1 -10 15 -14 16 -21 5 -7 -11 -9 -11 -9 -1 0 8
-8 10 -24 6 -16 -4 -25 -1 -29 11 -6 14 -9 14 -37 0 -27 -14 -29 -14 -23 1 4
12 2 15 -8 12 -8 -3 -13 -11 -11 -17 4 -20 -7 -12 -23 17 -14 23 -16 24 -12 5
3 -13 1 -23 -4 -23 -5 0 -9 4 -9 9 0 5 -13 7 -29 6 -25 -2 -29 1 -26 19 4 21
4 21 -10 2 -8 -11 -15 -14 -15 -8 0 7 -5 12 -11 12 -5 0 -7 -6 -4 -12 4 -7 -1
-4 -9 6 -16 20 -16 20 -17 0 0 -15 -2 -16 -7 -4 -5 10 -22 15 -54 15 -27 0
-50 5 -52 12 -5 13 -31 12 -43 -2 -4 -4 -2 -5 6 0 10 6 12 4 7 -4 -6 -8 -12
-9 -20 -2 -7 6 -17 7 -21 3 -5 -4 -5 -1 -1 6 4 7 12 10 17 7 5 -4 6 2 2 11 -4
11 -8 13 -11 6 -2 -7 -9 -9 -15 -5 -6 3 -30 6 -53 4 -23 -1 -45 3 -49 9 -5 8
-11 8 -21 -1 -11 -9 -14 -9 -14 1 0 9 -4 9 -13 2 -8 -7 -18 -6 -31 4 -10 7
-23 11 -29 7 -6 -3 -7 -1 -4 4 4 6 -2 13 -12 16 -15 4 -18 1 -13 -12 5 -14 4
-14 -13 -1 -11 9 -16 10 -11 3 4 -7 3 -13 -2 -13 -6 0 -12 7 -15 15 -6 13 -35
14 -57 0 -6 -3 -7 1 -4 9 7 19 -7 21 -25 4 -9 -9 -12 -9 -7 -1 3 6 3 13 -1 16
-5 2 -3 2 4 1 7 -2 15 1 18 5 3 5 -10 8 -29 7 -19 -1 -34 1 -34 4 2 27 -31 50
-64 45 -11 -2 -15 4 -13 20 1 16 -2 22 -11 18 -13 -5 -19 8 -15 30 1 5 -3 6
-9 2 -6 -3 -7 -11 -4 -17 5 -7 2 -8 -5 -4 -7 5 -10 14 -7 22 3 8 0 13 -7 11
-7 -1 -11 4 -9 12 2 8 -3 11 -13 8 -13 -6 -20 4 -16 26 0 4 -3 7 -9 7 -5 0 -6
7 -3 17 4 11 3 14 -5 9 -7 -4 -12 -2 -12 4 0 6 -5 8 -12 4 -8 -5 -7 0 2 11 9
11 10 16 3 11 -8 -4 -13 -1 -13 8 0 9 -5 16 -11 16 -6 0 -9 9 -6 20 4 16 2 18
-12 10 -13 -6 -18 -5 -18 5 0 8 5 11 11 8 6 -4 5 1 -2 9 -8 10 -20 14 -30 11
-15 -6 -15 -5 -3 10 11 14 11 18 -3 23 -9 3 -13 10 -10 15 3 5 -5 9 -18 9 -18
0 -20 2 -8 10 9 6 10 10 3 10 -6 0 -15 9 -18 20 -3 11 -11 20 -16 20 -6 0 -7
-5 -3 -12 4 -7 3 -8 -5 -4 -9 6 -9 11 -1 21 10 11 8 13 -9 10 -19 -3 -20 -1
-10 18 7 12 8 19 4 15 -9 -8 -35 15 -35 32 0 6 -11 15 -25 20 -18 7 -23 14
-18 26 4 12 3 15 -5 10 -7 -4 -12 -1 -12 9 0 10 -5 13 -12 9 -8 -5 -7 0 2 11
14 17 13 17 -10 10 -23 -7 -24 -7 -10 10 9 11 10 16 3 11 -8 -4 -13 -1 -13 9
0 9 -4 14 -9 11 -4 -3 -17 1 -27 9 -13 10 -14 14 -4 12 8 -2 12 -2 7 0 -4 3
-5 8 -3 11 2 4 -8 7 -24 7 -20 1 -27 -3 -23 -15 3 -10 1 -9 -7 3 -6 10 -16 14
-23 10 -7 -4 -5 2 3 12 14 17 13 18 -2 12 -10 -3 -20 -1 -24 5 -4 7 -3 8 4 4
7 -4 12 -3 12 3 0 5 -4 11 -10 13 -5 2 -11 12 -13 23 -9 45 -18 56 -36 43 -9
-7 -13 -8 -9 -4 4 5 2 16 -5 24 -10 13 -9 15 7 8 19 -7 19 -6 2 13 -10 11 -27
23 -38 27 -15 4 -16 9 -8 19 9 11 6 13 -13 11 -19 -2 -23 1 -20 15 3 11 -3 19
-17 24 -16 5 -19 9 -10 15 9 6 7 10 -9 15 -12 3 -19 11 -16 16 4 5 0 9 -8 9
-13 0 -31 34 -28 53 1 4 -8 3 -20 -4 -15 -8 -19 -8 -15 0 4 6 1 11 -6 11 -9 0
-9 3 2 10 10 6 11 10 3 10 -7 0 -15 -1 -16 -2 -2 -2 -11 3 -21 11 -12 11 -14
17 -5 28 7 7 9 16 5 20 -3 3 -6 1 -6 -6 0 -9 -4 -9 -14 1 -8 7 -12 16 -9 21 2
4 -2 7 -10 7 -8 0 -18 7 -21 16 -3 8 -11 12 -17 8 -8 -4 -9 -3 -5 4 4 7 2 12
-3 12 -6 0 -11 7 -11 16 0 8 -4 12 -10 9 -5 -3 -10 -1 -10 5 0 6 -5 8 -10 5
-6 -4 -10 -3 -9 2 1 4 1 17 -1 28 l-1 20 -9 -20 c-8 -19 -9 -19 -9 3 -1 13 -5
20 -11 17 -5 -3 -10 -1 -10 5 0 6 -4 9 -8 6 -5 -3 -15 6 -22 19 -7 14 -21 25
-31 25 -9 0 -19 10 -22 21 -4 14 -11 20 -21 16 -10 -4 -13 -1 -9 9 3 9 -1 14
-13 14 -16 0 -17 2 -4 10 13 8 12 10 -3 10 -11 0 -15 4 -11 12 5 7 2 9 -8 5
-19 -7 -58 32 -51 52 4 10 -1 11 -18 6 -19 -5 -21 -4 -9 5 11 9 12 13 2 17 -6
2 -10 9 -6 14 5 8 -10 13 -29 10 -5 -1 -6 3 -2 9 3 5 1 10 -4 10 -6 0 -11 5
-11 11 0 5 6 7 13 3 6 -3 0 6 -16 20 -16 16 -24 32 -20 39 4 7 -2 5 -12 -3
-17 -14 -18 -13 -12 3 3 9 2 17 -3 17 -6 0 -10 8 -10 18 0 15 -2 15 -11 2 -9
-12 -10 -10 -6 8 5 20 3 22 -11 10 -12 -10 -14 -10 -8 0 4 7 2 12 -6 12 -9 0
-9 3 2 10 13 8 12 10 -2 10 -10 0 -19 5 -19 10 -1 6 -2 14 -3 19 -2 15 -43 51
-58 51 -9 0 -9 3 2 10 13 9 13 10 0 11 -10 0 -8 3 5 9 19 8 19 9 -3 9 -22 1
-23 2 -6 19 16 16 16 17 1 20 -10 2 -15 8 -11 13 3 5 10 6 16 3 6 -4 6 1 -1
14 -8 15 -7 23 4 32 8 7 15 9 15 5 0 -4 7 -2 15 5 12 10 13 16 3 28 -10 13
-10 14 0 8 7 -4 12 -2 12 6 0 9 3 9 10 -2 9 -13 14 -7 11 13 -1 8 9 10 92 16
11 1 15 6 11 13 -5 7 -3 8 7 3 18 -12 49 -14 43 -3 -3 4 0 8 5 8 6 0 11 -4 11
-8 0 -5 7 -9 15 -9 11 0 12 4 3 14 -9 11 -7 12 8 6 10 -3 22 -11 27 -17 4 -6
5 3 3 19 -5 27 -4 28 8 13 16 -22 27 -23 20 -4 -4 10 0 13 13 11 10 -2 18 -4
18 -5 0 -1 8 -3 18 -5 14 -3 15 0 8 9 -8 9 -7 13 4 13 8 0 15 -5 15 -11 0 -6
5 -4 10 4 8 12 10 12 10 1 0 -10 3 -11 13 -2 8 6 16 8 20 5 3 -3 17 -7 31 -8
19 -2 24 0 17 8 -14 16 64 13 83 -3 11 -9 16 -9 22 0 5 8 3 9 -6 4 -9 -5 -11
-4 -6 3 5 9 13 9 29 0 21 -10 21 -10 7 7 -14 17 -14 17 7 5 18 -12 20 -17 10
-30z m633 -6 c0 -8 -19 -13 -24 -6 -3 5 1 9 9 9 8 0 15 -2 15 -3z m-1136 -22
c3 -5 -1 -9 -9 -9 -8 0 -12 4 -9 9 3 4 7 8 9 8 2 0 6 -4 9 -8z m-104 -66 c0
-3 -4 -8 -10 -11 -5 -3 -10 -1 -10 4 0 6 5 11 10 11 6 0 10 -2 10 -4z m-2392
-31 c-3 -3 -9 2 -12 12 -6 14 -5 15 5 6 7 -7 10 -15 7 -18z m4636 -51 c3 -8 2
-12 -4 -9 -6 3 -10 10 -10 16 0 14 7 11 14 -7z m-2239 -123 c3 -5 0 -13 -6
-17 -7 -4 -9 -3 -5 4 3 5 0 13 -6 15 -9 4 -10 6 -1 6 6 1 14 -3 18 -8z m3390
-101 c3 -5 1 -10 -4 -10 -6 0 -11 5 -11 10 0 6 2 10 4 10 3 0 8 -4 11 -10z
m-15 -422 c0 -6 -6 -5 -15 2 -8 7 -15 14 -15 16 0 2 7 1 15 -2 8 -4 15 -11 15
-16z m-5648 -41 c9 -10 15 -27 13 -38 -2 -10 0 -19 6 -19 5 0 9 -5 9 -11 0 -5
-5 -7 -12 -3 -6 4 -8 3 -4 -4 3 -6 14 -9 24 -7 12 2 18 -3 18 -15 0 -15 -3
-16 -13 -8 -8 6 -16 8 -20 4 -3 -3 -1 -6 6 -6 7 0 9 -4 6 -10 -3 -5 0 -10 7
-10 9 0 9 -3 -2 -10 -10 -6 -11 -10 -2 -10 6 0 12 -11 12 -25 0 -15 6 -25 14
-25 8 0 18 -5 22 -12 4 -7 3 -8 -4 -4 -7 4 -12 2 -12 -5 0 -7 9 -9 23 -6 18 5
20 4 7 -6 -16 -12 -15 -52 1 -42 5 3 6 -1 3 -9 -3 -9 -11 -13 -18 -9 -7 4 -7
1 1 -9 7 -8 9 -19 5 -23 -4 -5 -1 -5 6 -1 7 4 10 12 7 17 -4 5 2 6 11 2 11 -4
13 -8 6 -11 -14 -4 -16 -42 -2 -42 5 0 7 -7 4 -15 -5 -11 -1 -14 12 -9 14 4
16 3 5 -4 -9 -6 -10 -15 -5 -23 10 -17 11 -20 13 -61 2 -32 2 -32 17 -13 15
19 15 19 9 -6 -4 -16 -2 -30 5 -34 8 -5 8 -10 -1 -21 -8 -10 -8 -14 0 -14 6 0
10 -3 10 -7 -5 -28 1 -35 19 -22 14 11 15 11 5 -1 -10 -11 -10 -17 0 -29 9
-12 9 -13 0 -7 -7 4 -13 2 -13 -3 0 -6 4 -11 8 -11 5 0 7 -18 6 -40 -1 -22 1
-38 5 -36 3 2 12 -7 18 -21 12 -25 12 -25 -8 -7 -21 18 -21 18 -8 -9 8 -18 18
-26 28 -22 14 4 13 3 -1 -8 -12 -9 -14 -18 -7 -30 7 -12 6 -17 -2 -17 -7 0 -9
-3 -6 -6 4 -4 13 -1 21 5 11 9 16 9 22 0 4 -7 3 -9 -3 -6 -16 10 -24 -18 -10
-33 9 -10 9 -11 -2 -5 -9 5 -12 4 -7 -3 4 -7 9 -22 11 -33 3 -12 7 -24 10 -28
4 -3 4 7 1 22 -3 16 -1 25 5 22 5 -4 7 -11 4 -16 -4 -5 -2 -9 3 -9 5 0 7 -12
4 -26 -4 -21 -2 -25 9 -19 8 5 11 5 7 0 -4 -4 -3 -16 2 -26 7 -12 6 -20 -2
-25 -6 -4 -8 -3 -5 2 3 6 1 16 -4 24 -7 11 -8 8 -5 -10 2 -18 9 -24 22 -22 15
3 16 2 4 -12 -11 -14 -10 -20 10 -41 13 -14 20 -25 15 -25 -4 0 0 -9 9 -19 13
-14 14 -21 5 -27 -8 -5 -10 -3 -4 6 6 9 4 11 -5 5 -9 -6 -11 -4 -5 5 5 9 4 11
-4 6 -16 -10 7 -39 25 -32 13 5 13 -19 -1 -31 -4 -4 -5 -2 0 6 5 10 4 12 -4 7
-17 -11 -3 -26 17 -19 15 6 15 5 3 -10 -11 -14 -11 -17 0 -17 11 0 11 -3 -1
-11 -12 -9 -11 -10 5 -6 15 3 21 -1 21 -14 0 -14 -3 -15 -13 -7 -10 8 -12 7
-7 -6 3 -9 10 -16 15 -16 5 0 9 -12 9 -26 0 -14 4 -23 10 -19 6 3 10 2 10 -4
0 -5 -5 -13 -11 -16 -6 -5 -4 -12 8 -22 11 -9 12 -12 3 -8 -8 4 -4 -2 9 -13
18 -14 21 -21 11 -27 -8 -5 -11 -4 -7 2 3 5 0 10 -8 10 -11 0 -12 -4 -4 -13 6
-7 16 -11 23 -8 7 3 13 -2 13 -10 0 -8 -5 -12 -11 -9 -6 3 -5 0 2 -8 6 -7 12
-23 12 -36 0 -13 4 -23 10 -23 5 0 7 8 4 18 -4 13 -2 12 7 -3 15 -23 20 -57 7
-49 -4 3 -8 0 -8 -5 0 -6 9 -11 20 -11 11 0 20 -4 20 -10 0 -5 -7 -7 -15 -4
-11 5 -13 2 -9 -10 4 -11 14 -15 28 -11 11 2 15 2 8 -1 -6 -3 -10 -10 -7 -15
4 -5 -2 -6 -12 -3 -17 5 -17 5 0 -6 9 -6 15 -15 12 -21 -4 -5 -1 -9 4 -9 6 0
10 -3 10 -7 -1 -5 -1 -17 0 -28 1 -17 3 -18 12 -5 8 12 9 10 4 -7 -5 -19 -3
-22 12 -17 11 3 14 2 7 -3 -10 -8 -14 -53 -4 -53 3 0 6 -16 7 -35 2 -22 -2
-35 -9 -35 -6 0 -3 -7 8 -15 10 -8 15 -15 11 -15 -5 0 -2 -7 7 -15 8 -8 13
-24 11 -35 -2 -11 -1 -19 3 -19 19 3 32 -2 32 -12 0 -5 -4 -8 -8 -5 -5 3 -8
-5 -7 -17 1 -14 8 -21 18 -19 12 2 15 -4 11 -24 -3 -16 2 -34 12 -45 16 -17
16 -19 0 -25 -16 -6 -16 -8 1 -26 16 -17 16 -18 0 -12 -13 5 -16 2 -11 -10 3
-9 10 -13 15 -10 5 3 9 0 9 -5 0 -6 -4 -11 -10 -11 -5 0 -10 -5 -10 -11 0 -5
5 -7 10 -4 10 6 14 -7 11 -32 -1 -7 3 -13 10 -13 6 0 9 -8 6 -20 -4 -14 0 -20
11 -20 15 0 15 -2 2 -10 -10 -6 -11 -10 -2 -10 6 0 12 -6 12 -14 0 -8 5 -18
12 -22 7 -5 8 -3 3 6 -5 8 -4 11 3 7 5 -4 8 -17 4 -29 -3 -14 -2 -19 6 -14 7
4 12 2 12 -3 0 -6 -4 -11 -10 -11 -5 0 -10 -5 -10 -11 0 -5 4 -7 10 -4 14 9
12 -8 -2 -24 -10 -11 -10 -13 0 -7 6 4 12 2 12 -4 0 -6 6 -8 13 -4 6 4 9 4 5
-1 -4 -4 -2 -15 5 -23 10 -13 9 -14 -10 -3 -19 10 -22 9 -17 -4 4 -8 10 -15
15 -15 5 0 9 -7 9 -15 0 -8 6 -15 13 -16 9 0 9 -2 -1 -6 -6 -2 -12 -9 -12 -14
0 -6 5 -7 10 -4 6 3 10 -1 10 -10 0 -10 -5 -13 -12 -9 -7 4 -8 3 -4 -4 4 -6
14 -8 23 -5 10 4 14 2 10 -4 -4 -6 0 -18 8 -26 17 -17 20 -31 5 -22 -6 3 -7
-1 -4 -9 3 -9 10 -14 14 -11 5 3 6 -5 2 -17 -3 -14 -1 -19 6 -14 6 3 14 1 18
-5 4 -7 3 -9 -4 -5 -6 3 -13 2 -17 -4 -3 -5 -2 -10 4 -10 6 0 15 -10 21 -22
11 -23 11 -23 -5 -3 -16 19 -16 19 -9 -10 4 -16 12 -33 18 -37 7 -5 6 -8 -4
-8 -12 0 -12 -2 -2 -9 8 -4 11 -19 8 -34 -4 -21 -1 -25 14 -22 14 3 17 -1 13
-12 -5 -12 -3 -14 8 -8 11 6 12 5 2 -6 -17 -17 -17 -32 0 -23 8 5 8 2 -2 -9
-9 -12 -10 -17 -2 -17 7 0 9 -5 6 -10 -4 -6 -10 -8 -14 -6 -4 3 -6 -5 -5 -17
1 -12 3 -26 3 -30 1 -5 6 -5 13 -1 7 4 8 3 4 -5 -4 -6 -11 -9 -16 -6 -5 3 -11
1 -15 -5 -3 -5 1 -10 11 -10 13 0 14 -3 5 -14 -6 -7 -9 -21 -5 -30 3 -9 2 -16
-4 -16 -6 0 -9 11 -8 25 2 13 -1 22 -6 19 -5 -3 -8 -11 -7 -17 4 -30 -2 -48
-13 -41 -7 4 -8 3 -4 -5 4 -6 12 -9 17 -6 5 4 9 1 9 -4 0 -6 -4 -11 -9 -11 -5
0 -12 -7 -15 -16 -3 -8 -2 -12 3 -9 5 3 12 1 16 -5 3 -5 0 -10 -7 -10 -7 0
-19 -10 -27 -22 -13 -21 -13 -22 2 -10 12 10 17 10 23 1 4 -8 3 -9 -4 -5 -7 4
-12 1 -12 -8 0 -9 -5 -15 -12 -14 -6 2 -13 -9 -14 -25 -2 -19 1 -25 9 -21 7 4
8 3 4 -2 -5 -5 -14 -9 -20 -9 -7 0 -12 -8 -12 -18 0 -10 -9 -25 -19 -33 -15
-10 -16 -14 -5 -15 10 0 10 -2 1 -6 -6 -2 -9 -10 -5 -16 4 -7 0 -8 -11 -4 -9
4 -14 3 -11 -2 3 -5 1 -12 -5 -16 -6 -4 -8 -10 -5 -15 3 -5 -3 -14 -12 -20
-15 -9 -14 -10 7 -5 l25 7 -25 -18 c-14 -9 -26 -18 -26 -18 -1 -1 -5 -12 -9
-25 -6 -18 -4 -22 6 -15 11 6 12 5 3 -7 -6 -8 -10 -21 -9 -30 2 -10 -4 -16
-14 -15 -10 1 -15 -5 -13 -16 1 -9 -3 -20 -9 -24 -8 -5 -9 -3 -4 6 6 9 4 11
-4 5 -9 -5 -9 -11 -3 -17 14 -14 3 -40 -12 -31 -7 4 -6 1 2 -9 10 -13 9 -18
-5 -29 -17 -13 -17 -13 -3 6 14 18 14 19 -1 7 -12 -9 -17 -26 -15 -56 1 -41 0
-43 -19 -34 -16 8 -18 8 -8 -2 10 -11 9 -16 -5 -27 -12 -10 -12 -12 -2 -8 13
6 13 5 0 -7 -9 -7 -14 -21 -12 -30 2 -10 -4 -25 -13 -34 -9 -9 -13 -24 -10
-35 4 -12 1 -21 -9 -25 -11 -4 -13 -11 -6 -29 6 -15 6 -27 -1 -30 -5 -4 -6
-12 -2 -18 3 -7 -3 -4 -14 6 -16 14 -23 15 -29 6 -4 -7 -3 -10 4 -5 6 3 16 -3
22 -15 7 -13 8 -19 2 -15 -6 3 -13 2 -17 -4 -3 -5 -1 -10 4 -10 6 0 11 -5 11
-11 0 -6 -6 -9 -12 -6 -8 3 -14 -5 -14 -22 -1 -21 -6 -44 -13 -68 -1 -2 -1 -6
0 -10 0 -4 -9 -10 -20 -15 -12 -4 -21 -13 -21 -20 0 -9 3 -9 10 2 7 12 9 10 7
-8 -1 -14 -6 -21 -14 -18 -7 3 -13 1 -13 -5 0 -6 -4 -8 -9 -5 -9 6 -7 -37 4
-54 3 -6 3 -10 -2 -9 -20 3 -27 -2 -13 -11 12 -7 12 -12 3 -21 -9 -9 -9 -16
-2 -25 7 -8 6 -14 -2 -20 -7 -4 -9 -3 -5 4 3 6 2 14 -4 17 -8 5 -8 11 -1 19 8
9 7 13 -3 13 -9 0 -13 -8 -10 -24 3 -15 1 -22 -6 -18 -6 3 -7 0 -4 -9 3 -9 10
-16 15 -16 5 0 9 -4 9 -10 0 -5 -8 -6 -17 -3 -16 6 -16 4 -5 -9 11 -14 10 -18
-5 -27 -14 -8 -15 -11 -3 -12 8 -1 19 -1 23 0 5 1 6 -3 3 -8 -7 -10 -25 -9
-43 2 -7 5 -13 4 -13 -2 0 -5 5 -11 11 -13 7 -2 13 -20 14 -40 1 -21 -2 -35
-7 -32 -4 3 -8 0 -8 -5 0 -6 -5 -10 -12 -8 -7 1 -13 -8 -14 -20 -1 -13 -2 -24
-4 -25 -7 -10 -6 -37 1 -32 5 3 7 9 4 14 -3 5 -1 11 4 15 5 3 8 14 6 24 -3 15
1 18 18 13 20 -5 20 -6 1 -13 -10 -4 -15 -8 -11 -8 5 -1 5 -7 0 -13 -4 -7 -8
-19 -10 -27 -2 -15 -23 -32 -33 -26 -3 2 -6 -16 -6 -38 -2 -60 -7 -80 -24 -95
-13 -12 -13 -13 3 -8 9 3 17 1 17 -4 0 -6 -5 -10 -12 -10 -6 0 -9 -3 -5 -6 3
-3 -3 -21 -14 -40 -10 -19 -19 -41 -19 -50 0 -9 -5 -12 -12 -8 -8 5 -7 0 2
-11 9 -11 10 -16 3 -11 -7 4 -13 2 -13 -3 0 -6 5 -11 10 -11 6 0 10 -4 10 -9
0 -5 -10 -7 -22 -4 -16 3 -19 2 -10 -4 15 -11 5 -43 -13 -43 -8 0 -16 -4 -20
-9 -3 -6 7 -8 22 -5 19 3 24 2 14 -5 -8 -5 -11 -16 -8 -24 4 -11 1 -15 -13
-12 -13 3 -17 -1 -13 -11 3 -7 10 -11 17 -7 6 4 6 0 -2 -9 -10 -13 -10 -17 0
-22 7 -3 3 -3 -9 0 -13 3 -23 1 -23 -5 0 -6 6 -11 13 -12 10 0 10 -2 0 -6 -20
-7 -15 -23 5 -17 13 4 12 2 -3 -7 -33 -20 -57 -73 -29 -62 10 4 12 0 8 -11 -3
-9 -9 -14 -13 -11 -4 2 -7 -9 -6 -25 1 -17 -1 -31 -4 -31 -40 -9 -51 -5 -51
18 0 16 -4 22 -12 17 -6 -4 -8 -3 -4 4 3 6 -2 13 -11 16 -15 4 -14 4 2 3 11
-1 25 -12 31 -25 15 -31 21 -35 30 -21 4 8 3 10 -4 5 -7 -4 -12 -2 -12 5 0 20
-31 49 -52 49 -11 0 -16 5 -13 10 3 6 -1 10 -9 10 -8 0 -18 9 -21 21 -5 15
-10 17 -19 9 -10 -8 -12 -4 -8 16 3 19 1 25 -7 20 -6 -4 -11 -2 -11 4 0 6 -4
9 -9 5 -5 -3 -13 0 -17 6 -4 7 -3 9 4 5 6 -3 14 -2 17 4 4 6 3 10 -2 9 -4 -1
-21 -1 -36 0 -19 1 -26 5 -21 14 5 9 4 9 -6 0 -18 -17 -65 14 -50 32 8 10 8
15 -1 21 -8 5 -10 3 -5 -7 4 -8 1 -6 -7 3 -8 10 -18 14 -23 10 -4 -4 -3 0 4
10 11 14 10 17 -9 23 -15 5 -18 10 -9 15 8 5 7 9 -5 14 -10 3 -13 11 -9 18 5
8 0 7 -11 -2 -11 -9 -16 -10 -11 -2 4 7 2 12 -6 12 -10 0 -9 3 2 11 12 9 11
10 -8 6 -12 -3 -20 -1 -17 3 3 5 -3 13 -12 19 -10 6 -13 11 -7 11 5 0 16 -6
24 -12 8 -7 -1 4 -20 24 -19 20 -38 34 -42 32 -4 -3 -5 1 -2 9 3 8 -2 21 -10
29 -10 11 -12 18 -4 26 8 8 4 9 -13 6 -19 -5 -21 -4 -9 5 10 7 11 11 3 11 -7
0 -13 9 -13 20 0 11 -5 20 -11 20 -5 0 -7 -5 -3 -12 4 -7 3 -8 -4 -4 -6 4 -8
14 -5 23 5 12 3 14 -7 8 -10 -6 -12 -4 -7 8 4 11 1 17 -9 17 -8 0 -12 5 -9 10
4 6 12 7 18 3 7 -4 6 1 -2 11 -8 9 -20 15 -28 12 -8 -3 -13 0 -12 7 3 27 -1
38 -13 31 -8 -5 -7 0 2 11 14 17 13 18 -2 12 -10 -3 -20 -1 -24 5 -4 7 -3 8 4
4 7 -4 12 -2 12 3 0 6 -4 11 -10 11 -5 0 -10 7 -10 16 0 9 -5 12 -13 8 -9 -5
-9 -4 1 7 10 11 8 16 -10 27 -13 7 -15 11 -6 8 12 -3 15 -1 11 9 -3 8 -8 13
-12 11 -3 -2 -15 8 -26 23 -18 24 -18 25 0 11 17 -14 17 -14 5 7 -8 12 -17 20
-21 17 -4 -2 -9 3 -12 11 -4 10 -1 12 11 8 9 -4 4 6 -13 21 -16 15 -24 25 -17
21 6 -3 12 -1 12 4 0 6 -6 11 -14 11 -7 0 -20 8 -27 17 -10 11 -10 14 -1 9 6
-4 12 -2 12 3 0 6 -5 11 -11 11 -8 0 -8 4 1 15 10 12 6 18 -22 36 -18 11 -24
18 -14 15 16 -5 17 -4 6 9 -7 8 -9 15 -4 15 5 0 -4 9 -21 20 -26 17 -27 20
-10 21 16 1 17 2 3 6 -11 3 -15 10 -11 20 4 9 2 14 -3 10 -6 -3 -9 6 -8 22 2
25 -27 67 -38 55 -3 -2 -5 3 -5 11 0 8 4 12 9 9 4 -3 8 0 8 5 0 6 -5 11 -10
11 -6 0 -10 6 -9 13 3 28 -2 39 -16 33 -8 -3 -15 -1 -15 4 0 6 7 10 15 10 8 0
15 4 15 9 0 6 -8 8 -18 6 -14 -2 -18 2 -17 18 1 12 -5 31 -14 42 -14 17 -14
18 0 7 13 -9 16 -9 16 3 0 8 -4 15 -9 15 -5 0 -7 4 -4 9 3 5 -2 15 -12 22 -15
13 -16 12 -4 -3 10 -12 10 -18 1 -24 -7 -4 -9 -3 -5 4 3 6 2 13 -4 17 -7 4 -6
13 1 27 9 16 8 19 -2 13 -9 -6 -11 -2 -6 14 4 18 2 21 -10 17 -14 -6 -14 -4
-2 11 8 9 9 14 3 10 -9 -5 -40 34 -44 58 -1 6 -7 16 -13 24 -9 11 -9 13 0 8 8
-5 11 -1 10 12 -1 13 -5 17 -12 11 -7 -6 -11 -2 -11 10 0 10 4 16 8 14 8 -5 3
30 -7 46 -4 6 -12 7 -18 3 -7 -3 -3 4 8 17 l20 23 -22 -12 c-30 -15 -41 -14
-18 2 14 11 15 16 5 22 -9 6 -11 4 -5 -5 6 -9 4 -11 -4 -5 -9 5 -10 10 -2 18
7 7 5 15 -7 24 -9 8 -12 12 -6 9 7 -3 15 1 18 10 4 10 2 13 -6 8 -8 -5 -9 -2
-5 9 3 9 1 19 -5 23 -7 5 -8 2 -3 -6 5 -9 4 -11 -3 -6 -7 4 -8 15 -2 30 10 28
4 37 -18 28 -15 -5 -15 -4 -3 11 10 13 10 17 1 17 -10 0 -10 3 -1 14 9 11 9
16 0 22 -7 4 -9 3 -6 -3 3 -5 0 -10 -7 -10 -14 0 -13 6 14 57 12 22 12 24 -3
12 -10 -9 -17 -10 -22 -2 -3 5 -1 10 4 10 6 0 11 5 11 11 0 5 -6 7 -13 3 -6
-4 -4 2 6 13 15 18 16 22 3 32 -13 11 -15 9 -11 -8 2 -12 0 -19 -6 -16 -5 4
-7 10 -4 15 3 5 1 11 -5 15 -6 4 -5 13 3 26 10 16 9 22 -3 30 -13 9 -12 10 2
5 10 -3 20 0 24 6 4 6 3 8 -2 5 -6 -3 -16 -2 -24 3 -13 8 -13 11 -1 22 11 11
13 11 6 -1 -6 -10 -4 -12 4 -6 9 5 10 10 2 18 -6 6 -15 7 -24 1 -7 -5 -4 -1 6
9 13 11 15 17 6 17 -10 0 -10 3 -1 12 16 16 15 33 -1 20 -9 -8 -12 -5 -12 13
0 13 3 21 6 19 4 -2 10 3 13 12 3 8 2 12 -4 9 -6 -3 -10 -1 -10 5 0 6 -5 8
-12 4 -7 -4 -8 -3 -4 5 4 6 12 9 17 6 5 -4 9 -1 9 4 0 6 -4 11 -9 11 -5 0 -7
10 -3 22 4 16 2 19 -8 13 -9 -5 -8 0 3 15 13 18 14 27 5 44 -15 27 -19 48 -7
40 5 -3 9 2 9 11 0 10 -5 14 -13 9 -9 -6 -9 -4 0 7 17 17 17 32 0 23 -9 -6 -9
-4 -1 7 16 22 12 138 -6 150 -12 8 -10 10 8 6 19 -5 21 -3 11 9 -6 7 -15 12
-18 9 -4 -2 -8 2 -8 9 0 8 6 12 14 9 7 -3 13 0 13 6 0 6 -4 11 -10 11 -5 0
-10 5 -10 11 0 5 5 7 10 4 6 -3 10 -1 10 4 0 6 -6 11 -12 12 -10 0 -10 2 0 6
10 4 10 8 0 21 -11 13 -11 14 1 7 9 -5 12 -4 7 3 -3 6 -2 13 3 17 6 3 5 18 -3
38 -15 38 -14 45 2 75 11 19 10 22 -3 22 -9 0 -13 5 -10 10 4 6 12 7 18 4 7
-4 9 -4 5 1 -4 4 -3 14 3 21 7 8 7 14 -1 19 -14 9 -13 55 3 56 9 0 9 2 0 6
-18 7 -16 16 7 41 22 23 14 31 -9 10 -11 -11 -12 -9 -3 8 6 12 8 24 4 28 -3 4
0 5 8 1 11 -4 16 3 16 25 1 16 -3 30 -10 30 -7 0 -7 3 1 8 7 5 15 22 17 40 2
17 0 29 -4 27 -11 -7 -6 22 5 32 4 4 5 2 0 -6 -6 -10 -4 -12 4 -7 8 6 9 12 2
20 -6 7 -7 17 -3 21 4 5 1 5 -6 1 -7 -4 -9 -13 -5 -19 4 -7 1 -7 -9 1 -18 15
-13 46 6 35 6 -4 5 1 -2 10 -8 9 -11 21 -7 26 4 7 -1 8 -12 4 -14 -5 -12 0 7
23 22 24 26 39 25 90 0 50 3 61 15 57 11 -3 10 0 -3 10 -12 10 -14 17 -8 22 6
3 11 1 11 -6 0 -17 13 -2 16 19 2 9 -2 20 -9 25 -8 6 -5 7 7 3 13 -5 17 -2 13
9 -4 8 -1 17 5 21 7 4 6 9 -3 15 -11 7 -8 11 9 15 18 5 20 9 10 15 -11 7 -11
9 1 9 7 0 11 6 7 15 -3 9 0 15 10 15 14 0 14 2 0 16 -19 19 -20 25 -3 18 8 -3
13 4 14 16 1 13 -2 18 -10 13 -7 -3 -4 3 7 15 10 12 23 19 27 16 5 -3 6 1 3 9
-3 8 -1 18 5 22 17 10 13 25 -6 26 -15 0 -15 2 2 9 11 5 16 9 10 10 -5 0 -2 5
8 11 9 5 17 15 17 22 0 7 -4 6 -10 -3 -6 -9 -10 -10 -10 -3 0 6 5 15 10 18 6
4 7 11 4 17 -4 6 -2 8 4 4 15 -9 21 16 9 39 -9 17 -8 18 5 7 13 -10 18 -10 24
-1 4 8 3 9 -4 5 -7 -4 -12 -1 -12 9 0 11 5 15 14 12 9 -4 13 0 11 11 -1 9 3
20 9 24 8 5 7 8 -1 8 -7 0 -13 5 -13 11 0 5 5 7 12 3 7 -5 9 0 6 14 -4 15 -2
19 8 15 9 -3 14 2 14 15 0 12 5 24 11 28 8 4 8 9 0 17 -13 13 4 37 26 37 13 0
13 3 3 16 -11 12 -11 15 1 12 8 -2 15 7 17 21 3 17 0 21 -10 15 -10 -6 -10 -4
1 9 15 18 26 23 16 7 -3 -5 -1 -10 4 -10 6 0 11 12 11 26 0 14 4 23 9 19 5 -3
13 0 17 6 4 7 3 9 -4 5 -6 -3 -13 -2 -17 4 -3 5 1 10 9 10 10 0 13 7 11 21 -4
17 -2 19 11 8 12 -10 13 -9 8 6 -6 14 -4 16 6 10 9 -6 11 -4 6 4 -5 7 0 19 10
27 17 14 17 15 2 10 -10 -3 -18 -1 -18 4 0 6 5 10 11 10 5 0 7 5 4 10 -3 6 1
10 10 10 10 0 13 5 9 12 -5 7 -2 9 7 6 12 -5 14 1 11 24 -3 21 -1 29 7 24 7
-5 11 0 11 13 0 11 5 23 12 27 7 5 8 3 3 -6 -5 -9 -4 -11 4 -6 9 6 9 11 0 22
-9 11 -9 14 0 14 7 0 10 4 6 9 -3 5 0 13 6 17 8 4 9 3 5 -4 -4 -7 -3 -12 1
-12 5 0 14 9 21 21 8 12 9 18 3 14 -13 -7 -14 -3 -5 19 3 9 12 16 20 16 8 0
14 5 14 11 0 5 -5 7 -12 3 -7 -5 -8 -3 -3 5 4 7 16 10 28 7 15 -4 17 -2 8 7
-16 16 -13 30 5 23 15 -6 15 -4 3 11 -11 14 -11 15 0 9 10 -7 12 -3 6 15 -7
24 -7 24 9 4 15 -19 16 -19 9 -1 -4 12 0 23 10 31 9 7 18 22 20 33 2 12 7 25
12 29 4 5 5 2 0 -6 -5 -9 -3 -12 6 -9 8 3 13 10 12 16 -1 5 4 16 13 22 12 11
13 10 8 -6 -5 -18 -5 -18 6 -1 9 14 9 22 -1 33 -7 8 -8 14 -3 13 22 -4 34 2
34 17 0 8 5 12 10 9 6 -3 10 -2 10 4 0 5 -6 12 -12 14 -8 3 -7 6 4 6 9 1 20 6
24 13 5 7 3 8 -6 3 -9 -6 -11 -4 -6 4 5 7 15 10 23 6 14 -5 14 -3 2 12 -12 15
-12 16 3 10 12 -4 16 -1 13 12 -2 14 1 17 15 14 10 -3 21 1 25 8 5 7 4 10 -1
6 -5 -3 -10 3 -10 13 0 14 3 16 13 8 9 -8 13 -7 13 2 0 8 3 11 6 7 7 -7 34 17
34 29 0 5 -5 3 -12 -4 -7 -7 -17 -12 -22 -12 -6 0 -3 5 7 11 9 6 16 13 13 17
-2 4 10 8 27 9 17 1 34 6 38 10 15 15 64 9 81 -10z m6363 -825 c-3 -3 -11 0
-18 7 -9 10 -8 11 6 5 10 -3 15 -9 12 -12z m-6029 -221 c-4 -5 -1 -12 4 -14 6
-3 5 -4 -2 -3 -15 3 -23 26 -8 26 6 0 9 -4 6 -9z m-1402 -135 c-3 -8 -13 -17
-22 -21 -13 -5 -13 -2 3 15 21 24 26 25 19 6z m7680 -12 c5 -14 4 -15 -9 -4
-17 14 -19 20 -6 20 5 0 12 -7 15 -16z m-2677 -66 c-3 -8 -6 -5 -6 6 -1 11 2
17 5 13 3 -3 4 -12 1 -19z m188 -17 c3 -5 2 -12 -3 -15 -5 -3 -9 1 -9 9 0 17
3 19 12 6z m89 -9 c3 -5 -1 -9 -9 -9 -8 0 -12 4 -9 9 3 4 7 8 9 8 2 0 6 -4 9
-8z m440 -77 c-4 -8 -11 -12 -16 -9 -6 4 -5 10 3 15 19 12 19 11 13 -6z m219
-40 c-3 -9 -8 -14 -10 -11 -3 3 -2 9 2 15 9 16 15 13 8 -4z m-2247 -204 c0
-11 -5 -17 -11 -14 -5 4 -6 2 -2 -2 12 -14 35 -14 33 -1 0 6 2 11 5 11 3 0 13
6 22 14 11 9 17 10 17 2 0 -10 -14 -15 -34 -12 -5 1 -4 -5 4 -13 7 -9 18 -16
24 -16 6 0 4 5 -4 11 -12 9 -11 10 8 6 12 -3 20 -1 17 3 -3 5 -1 11 5 15 5 3
10 0 10 -7 0 -10 2 -10 8 -1 8 13 29 12 51 -1 11 -7 13 -5 9 6 -4 8 0 15 8 15
7 0 11 -4 8 -9 -3 -4 -1 -8 5 -8 5 0 12 6 14 13 3 7 6 5 6 -5 1 -18 12 -23 25
-11 12 12 40 12 48 0 4 -7 8 -7 8 -2 0 6 18 11 40 12 22 1 40 -3 40 -8 0 -6 6
-7 13 -2 20 12 37 12 37 0 0 -8 3 -8 8 -2 8 13 83 15 76 3 -3 -5 -9 -6 -13 -4
-4 3 -8 -1 -8 -8 0 -8 6 -12 13 -9 6 2 15 -1 19 -7 5 -8 11 -7 23 2 12 10 14
10 8 1 -4 -7 -2 -13 3 -13 6 0 11 5 11 11 0 6 7 3 16 -5 16 -17 29 -21 20 -8
-3 5 1 9 9 9 8 0 12 -4 9 -9 -3 -4 0 -8 6 -8 6 0 8 -5 4 -12 -5 -9 -2 -9 9 1
15 12 17 11 17 -3 0 -10 4 -15 9 -11 5 3 12 1 16 -5 4 -7 13 -6 27 1 15 8 19
8 14 0 -6 -10 21 -17 47 -12 5 1 6 -3 2 -8 -3 -6 -13 -8 -23 -5 -13 5 -14 4
-3 -4 7 -5 22 -7 34 -4 12 3 18 1 14 -5 -6 -9 -1 -11 41 -15 22 -1 63 -33 55
-42 -3 -3 1 -6 11 -6 10 0 14 -5 10 -12 -4 -7 -3 -8 4 -4 7 4 12 2 12 -3 0 -6
5 -11 11 -11 5 0 7 5 3 12 -4 7 -3 8 4 4 7 -4 12 -14 12 -23 0 -9 6 -13 15
-10 8 4 17 1 21 -5 4 -6 3 -8 -3 -5 -5 3 -10 0 -10 -7 0 -8 10 -12 24 -10 13
1 21 -2 17 -7 -5 -8 10 -13 29 -10 5 1 6 -2 3 -7 -3 -5 2 -18 10 -28 9 -10 13
-14 10 -7 -4 6 -1 15 5 19 7 4 9 3 6 -3 -4 -6 2 -22 13 -35 11 -14 16 -29 12
-32 -4 -4 -2 -7 3 -6 21 5 46 0 42 -7 -3 -5 5 -17 16 -28 11 -11 16 -13 12 -5
-5 8 5 2 22 -15 18 -19 25 -33 19 -37 -7 -5 -4 -8 7 -8 10 0 16 -4 13 -9 -3
-5 2 -15 11 -22 14 -12 16 -12 8 0 -5 10 -4 12 4 7 6 -4 9 -11 6 -16 -3 -5 -1
-11 4 -14 5 -4 8 -17 7 -31 -2 -13 0 -24 3 -23 3 1 14 -2 24 -7 15 -6 16 -10
5 -16 -11 -7 -11 -9 1 -9 11 0 11 -3 0 -17 -7 -10 -10 -15 -5 -11 12 10 46
-29 46 -52 0 -11 5 -20 10 -20 6 0 10 -6 10 -14 0 -8 4 -16 10 -18 5 -1 11
-15 12 -30 1 -16 6 -28 11 -28 5 0 4 -7 -3 -15 -10 -13 -9 -15 9 -15 19 0 27
-19 22 -52 0 -5 4 -8 10 -8 6 0 9 -7 5 -15 -3 -8 2 -18 11 -23 11 -7 16 -26
17 -75 0 -36 4 -69 9 -73 4 -4 0 -15 -9 -25 -12 -13 -12 -19 -3 -25 8 -5 10
-3 4 6 -5 9 -4 11 4 6 6 -4 8 -13 4 -19 -12 -19 -12 -37 -2 -37 6 0 8 -4 4
-10 -3 -5 -13 -6 -23 -3 -10 4 -7 -2 8 -15 21 -19 22 -21 5 -16 -17 5 -18 4
-5 -8 16 -14 20 -64 7 -85 -5 -7 -4 -13 1 -13 5 0 8 -10 6 -22 -2 -13 -6 -40
-10 -62 -4 -27 -3 -36 5 -32 6 4 11 2 11 -3 0 -6 -6 -11 -14 -11 -16 0 -13
-45 5 -66 7 -8 6 -15 -2 -20 -7 -4 -9 -3 -5 4 3 6 1 14 -5 18 -8 5 -10 -1 -6
-21 l5 -29 -20 25 c-19 24 -19 24 -8 1 6 -13 9 -26 6 -29 -3 -4 -1 -12 5 -19
7 -8 6 -14 -2 -20 -8 -4 -9 -3 -5 4 4 7 2 12 -3 12 -12 0 -14 -13 -4 -23 10
-11 10 -56 -1 -50 -5 4 -7 -3 -4 -15 4 -14 2 -19 -7 -16 -7 3 -16 -3 -20 -13
-12 -27 -12 -37 -1 -52 9 -12 7 -13 -8 -8 -16 6 -17 5 -6 -8 10 -12 9 -15 -6
-15 -16 0 -17 -2 -4 -10 13 -9 13 -10 0 -11 -8 -1 -18 -1 -22 0 -8 1 -5 -20 6
-38 7 -10 6 -12 -4 -6 -10 6 -12 4 -7 -8 4 -10 2 -17 -5 -17 -7 0 -7 -4 0 -13
8 -10 6 -13 -9 -14 -15 -1 -19 3 -15 13 3 8 2 12 -3 9 -6 -3 -9 -14 -8 -25 1
-10 4 -17 9 -14 9 6 1 -36 -8 -45 -4 -3 -4 2 -1 12 4 9 2 17 -3 17 -6 0 -10
-5 -10 -11 0 -5 -5 -7 -11 -3 -8 5 -8 1 0 -14 10 -18 8 -20 -8 -17 -14 3 -18
-1 -14 -11 3 -8 -1 -14 -8 -14 -11 0 -11 -3 1 -11 12 -8 9 -10 -12 -6 -23 3
-26 2 -18 -13 7 -13 3 -23 -15 -40 -13 -13 -22 -26 -20 -31 3 -4 -3 -5 -13 -2
-10 2 -25 -3 -33 -13 -12 -16 -12 -17 1 -9 12 6 13 6 2 -6 -11 -12 -14 -12
-22 1 -5 8 -10 10 -10 4 0 -5 6 -16 13 -23 8 -9 8 -12 0 -7 -6 3 -13 2 -15 -4
-1 -5 -13 -11 -26 -13 -25 -4 -55 -27 -34 -27 7 0 12 4 12 8 0 4 10 8 23 9 19
2 18 0 -8 -14 -16 -9 -33 -22 -38 -29 -4 -7 -15 -10 -24 -7 -12 5 -15 2 -10
-9 4 -12 -1 -15 -23 -14 -19 1 -26 -2 -23 -11 3 -7 10 -10 17 -6 6 3 7 2 3 -3
-5 -5 -22 -9 -37 -10 -16 0 -38 -8 -49 -18 -11 -10 -24 -15 -29 -12 -5 3 -9
-1 -9 -9 0 -8 5 -11 10 -8 6 3 7 1 4 -5 -4 -5 -17 -8 -29 -4 -16 4 -20 2 -15
-10 4 -12 -1 -15 -23 -13 -22 2 -27 -1 -23 -12 5 -12 1 -14 -17 -8 -18 6 -22
4 -17 -8 4 -11 2 -14 -9 -10 -7 3 -14 10 -14 16 0 6 -3 7 -6 4 -4 -4 -1 -14 7
-24 8 -9 9 -14 2 -10 -6 4 -15 2 -18 -4 -4 -5 -13 -8 -21 -5 -8 3 -14 1 -14
-5 0 -6 -5 -7 -10 -4 -6 4 -7 12 -3 18 4 7 0 6 -10 -2 -9 -7 -14 -18 -10 -24
4 -6 1 -7 -6 -3 -7 5 -10 15 -7 25 5 14 4 13 -8 -1 -16 -21 -32 -23 -40 -5 -4
6 -5 3 -2 -9 2 -11 -2 -21 -8 -22 -22 -2 -41 -8 -56 -17 -12 -7 -13 -6 -3 6 9
11 7 14 -12 14 -16 0 -21 -5 -17 -15 4 -12 2 -13 -8 -3 -10 10 -17 10 -28 1
-8 -7 -16 -8 -20 -2 -8 10 -57 13 -66 3 -4 -4 5 -5 19 -4 17 2 25 -2 25 -12 0
-13 -3 -13 -16 -2 -13 10 -17 10 -24 0 -6 -10 -10 -8 -15 8 -3 12 -11 19 -16
15 -6 -4 -6 -11 1 -19 12 -15 -5 -16 -28 -1 -7 4 -20 2 -29 -6 -14 -11 -16
-11 -9 1 6 9 5 12 -5 9 -8 -3 -20 2 -27 11 -12 15 -13 15 -9 0 3 -9 -1 -16 -9
-16 -8 0 -14 7 -14 15 0 12 -2 12 -17 1 -11 -10 -14 -10 -9 -1 4 6 2 12 -3 12
-6 0 -11 -6 -11 -12 0 -9 -3 -9 -8 -2 -9 14 -45 27 -37 14 10 -17 -7 -11 -22
8 -14 16 -14 16 -9 0 3 -10 0 -20 -6 -24 -7 -5 -8 -2 -3 6 6 10 4 12 -7 7 -9
-3 -15 0 -14 6 0 7 -3 13 -9 14 -5 1 -9 -6 -8 -15 1 -10 0 -11 -3 -4 -3 6 -10
10 -14 7 -5 -3 -12 0 -16 6 -4 7 -3 9 3 6 5 -3 10 0 10 8 0 10 -8 8 -30 -7
-17 -12 -27 -16 -22 -8 6 10 4 12 -9 7 -10 -4 -23 1 -33 13 -16 19 -18 19 -37
2 -19 -16 -19 -16 -12 3 4 11 4 16 0 13 -3 -4 -21 0 -38 9 -38 20 -56 24 -56
12 0 -5 -5 -9 -11 -9 -5 0 -8 4 -5 9 3 5 -1 12 -10 15 -8 3 -12 2 -9 -3 3 -5
1 -13 -5 -16 -6 -4 -10 -3 -9 2 4 23 -3 31 -26 28 -15 -1 -25 3 -25 10 0 7 -7
16 -16 19 -8 3 -12 2 -9 -4 3 -6 -1 -7 -10 -4 -9 4 -14 13 -11 21 4 9 2 11 -6
7 -6 -4 -18 2 -26 12 -11 15 -13 15 -9 2 7 -19 -20 -19 -32 1 -4 6 -16 9 -27
5 -16 -5 -16 -4 -4 5 12 8 12 11 1 11 -11 0 -11 3 0 17 13 15 12 15 -5 6 -22
-12 -70 3 -60 18 3 5 0 9 -6 9 -6 0 -8 5 -5 10 9 15 -2 12 -20 -6 -14 -15 -15
-14 -11 9 5 29 -10 46 -37 42 -9 -2 -15 1 -11 6 3 5 0 9 -6 9 -6 0 -8 5 -5 10
3 6 1 10 -5 10 -7 0 -10 7 -6 15 3 8 2 14 -2 14 -20 -3 -32 2 -32 15 0 8 -6
17 -12 19 -10 4 -9 8 2 17 12 9 10 10 -9 5 -20 -6 -23 -4 -18 9 4 10 1 19 -8
22 -8 4 -12 11 -8 17 4 6 0 8 -10 4 -9 -3 -19 -1 -23 5 -5 7 -2 8 7 4 8 -4 6
-1 -3 7 -14 11 -15 16 -5 27 9 10 9 11 0 6 -7 -4 -13 -2 -13 3 0 6 -7 11 -16
11 -8 0 -12 5 -9 10 3 6 1 10 -6 10 -8 0 -7 5 2 17 10 11 10 14 2 9 -7 -4 -13
-2 -13 3 0 6 -7 11 -15 11 -9 0 -12 6 -9 15 4 8 1 15 -6 15 -9 0 -10 3 -1 14
14 17 -11 42 -31 30 -7 -4 -10 -4 -6 1 4 4 3 17 -3 28 -9 15 -8 18 3 11 11 -7
11 -5 0 9 -8 9 -11 21 -7 27 9 14 -8 13 -24 -2 -11 -11 -11 -9 -2 10 10 19 9
22 -6 22 -15 0 -16 2 -3 10 8 5 10 10 4 10 -6 0 -11 8 -11 18 0 35 -3 42 -19
42 -8 0 -12 5 -9 10 3 6 0 10 -7 11 -10 0 -10 2 -1 6 10 3 9 8 -2 20 -8 8 -15
20 -15 26 0 7 4 6 10 -3 8 -11 9 -7 4 15 -4 16 -13 36 -21 43 -16 17 -17 32
-1 32 6 0 3 7 -8 15 -14 11 -15 14 -3 9 10 -3 20 0 24 6 3 6 3 10 -2 9 -20 -3
-34 2 -28 11 4 6 11 7 17 4 5 -4 2 6 -8 22 -19 27 -19 28 0 21 20 -8 20 -8 0
14 -10 12 -13 19 -6 15 6 -4 12 -2 12 3 0 6 -5 11 -12 11 -9 0 -9 3 0 12 10
10 8 15 -9 24 -19 10 -19 12 -5 17 11 5 15 3 10 -5 -5 -7 -3 -8 6 -3 10 6 9
11 -5 22 -11 7 -13 13 -7 13 7 0 12 7 12 15 0 9 -6 12 -17 9 -15 -5 -15 -4 -4
4 20 14 21 53 3 60 -13 4 -12 7 4 13 15 6 16 8 3 8 -9 1 -19 10 -22 21 -3 11
-2 18 3 15 4 -3 11 2 14 11 4 10 2 13 -6 8 -7 -5 -9 2 -6 20 4 18 1 29 -8 33
-8 3 -14 10 -14 15 0 6 6 8 13 5 10 -4 12 4 10 29 -1 19 -5 39 -9 45 -3 6 1 9
9 7 9 -2 16 2 16 7 1 6 -3 10 -8 10 -5 0 -13 4 -18 9 -4 5 -3 6 4 2 7 -4 17 2
22 13 14 26 14 34 -1 24 -7 -4 -5 6 6 21 10 16 13 25 7 22 -15 -10 -13 5 4 28
11 15 12 23 3 33 -6 8 -7 13 -2 12 21 -4 28 2 14 11 -13 8 -12 10 3 10 10 0
15 5 12 10 -3 6 -1 10 5 10 6 0 8 5 5 10 -3 6 2 10 11 10 16 0 16 1 -2 15 -18
14 -18 14 4 10 20 -4 22 -2 11 11 -10 12 -9 13 5 8 18 -7 19 15 1 28 -5 4 1 8
14 8 17 0 22 4 17 15 -3 9 1 18 9 21 8 4 15 15 15 26 0 13 5 18 14 15 10 -4
13 -1 10 7 -3 8 0 17 5 21 6 3 9 10 6 15 -3 4 3 7 12 6 9 0 18 5 20 12 3 8 -1
10 -14 6 -16 -6 -16 -5 -3 7 8 8 21 21 28 29 11 13 12 12 7 -5 -6 -18 -5 -18
5 -2 6 10 16 14 23 10 7 -4 6 1 -2 11 -12 15 -12 17 0 14 8 -2 13 3 11 10 -1
6 3 12 9 12 5 0 7 5 3 12 -4 7 -3 8 5 4 6 -4 8 -12 5 -18 -4 -7 -2 -8 4 -4 7
4 12 14 12 21 0 10 6 12 18 8 15 -6 15 -5 3 10 -12 15 -12 17 4 11 13 -5 16
-4 11 4 -4 7 -2 10 7 6 18 -6 41 21 31 37 -4 8 -3 9 4 5 7 -4 12 -1 13 6 0 10
2 10 6 1 2 -7 9 -13 14 -13 6 0 7 5 4 10 -3 6 2 10 12 10 15 0 16 2 3 10 -12
8 -11 10 8 10 12 0 22 5 22 11 0 5 5 7 12 3 7 -5 9 -2 5 9 -4 11 -1 15 14 12
12 -3 19 2 20 13 0 10 3 12 6 5 2 -7 9 -13 15 -13 6 0 7 7 4 16 -3 8 -2 12 3
9 5 -3 17 5 27 17 10 15 14 17 11 6 -4 -10 -1 -20 5 -24 6 -4 8 -3 5 2 -3 6
-2 16 4 24 6 10 9 11 9 3 0 -7 4 -13 10 -13 5 0 7 8 3 18 -3 9 -2 14 2 9 5 -4
19 3 32 15 20 19 25 20 33 8 8 -12 10 -12 10 -1 0 8 6 11 16 7 12 -4 15 -2 10
9 -3 8 0 14 7 12 7 -1 11 3 10 9 -1 6 5 11 13 11 18 0 18 -7 -3 -22 -13 -9
-13 -14 -3 -20 8 -5 11 -4 7 2 -8 13 20 26 35 17 6 -4 5 2 -1 15 -10 18 -9 20
6 14 10 -4 22 -11 26 -17 5 -6 6 2 2 17 -5 24 -4 27 9 15 7 -7 11 -17 8 -22
-3 -5 0 -6 6 -3 5 4 8 16 5 26 -3 10 0 22 6 25 7 5 8 1 4 -10 -5 -13 -3 -15 8
-8 22 13 40 14 32 1 -4 -7 1 -6 10 2 9 7 30 11 46 9 17 -2 28 -1 25 4 -3 4 0
8 6 8 6 0 8 5 4 12 -4 6 -3 8 3 5 6 -4 13 0 17 8 7 20 12 19 12 -4z m-3856
-35 c0 -2 -7 -7 -16 -10 -8 -3 -12 -2 -9 4 6 10 25 14 25 6z m229 -102 c-6 -8
-17 -14 -23 -14 -6 0 -4 5 4 10 8 5 11 10 7 10 -5 0 -5 5 -2 10 4 6 11 8 16 4
6 -4 6 -11 -2 -20z m-14 -64 c3 -5 1 -10 -4 -10 -6 0 -11 5 -11 10 0 6 2 10 4
10 3 0 8 -4 11 -10z m-275 -4 c0 -2 -8 -10 -17 -17 -16 -13 -17 -12 -4 4 13
16 21 21 21 13z m1910 -32 c0 -8 -19 -13 -24 -6 -3 5 1 9 9 9 8 0 15 -2 15 -3z
m8 -49 c-3 -3 -9 2 -12 12 -6 14 -5 15 5 6 7 -7 10 -15 7 -18z m3107 -55 c10
-11 16 -20 13 -20 -3 0 -13 9 -23 20 -10 11 -16 20 -13 20 3 0 13 -9 23 -20z
m3519 -28 c3 -5 -1 -9 -9 -9 -8 0 -12 4 -9 9 3 4 7 8 9 8 2 0 6 -4 9 -8z
m-8257 -27 c0 -8 -4 -15 -9 -15 -10 0 -11 14 -1 23 9 10 10 9 10 -8z m8456
-60 c-7 -21 -12 -19 -10 4 0 11 5 18 9 15 4 -3 5 -11 1 -19z m54 -27 c-3 -8
-6 -5 -6 6 -1 11 2 17 5 13 3 -3 4 -12 1 -19z m78 -30 c5 4 5 1 1 -6 -6 -10
-11 -10 -22 -1 -8 6 -14 14 -14 16 0 3 6 0 13 -6 8 -6 18 -7 22 -3z m207 -62
c7 4 8 2 4 -5 -9 -13 -26 -5 -25 12 0 9 2 8 6 -1 2 -6 10 -9 15 -6z m-8817
-14 c-3 -3 -11 0 -18 7 -9 10 -8 11 6 5 10 -3 15 -9 12 -12z m8913 -17 c-3 -3
-9 2 -12 12 -6 14 -5 15 5 6 7 -7 10 -15 7 -18z m27 5 c3 -5 1 -10 -4 -10 -6
0 -11 5 -11 10 0 6 2 10 4 10 3 0 8 -4 11 -10z m22 -26 c-3 -3 -12 -4 -19 -1
-8 3 -5 6 6 6 11 1 17 -2 13 -5z m113 -50 c0 -17 -16 -19 -26 -2 -5 7 -3 8 6
3 10 -6 12 -4 7 9 -4 10 -3 15 3 11 6 -3 10 -13 10 -21z m110 -29 c0 -2 -8 -6
-17 -9 -10 -4 -14 -4 -10 0 4 4 -1 16 -10 27 -18 20 -18 20 10 2 15 -9 27 -19
27 -20z m-73 -20 c0 -8 -4 -12 -9 -9 -5 3 -6 10 -3 15 9 13 12 11 12 -6z m91
1 c-10 -7 -15 -16 -11 -20 4 -4 -1 -4 -11 0 -17 6 -16 8 5 20 31 17 39 17 17
0z m51 -19 c0 -8 -2 -8 -6 1 -4 10 -9 9 -19 -5 -11 -13 -14 -14 -12 -3 5 29
39 35 37 7z m-9265 -18 c-8 -14 -21 -11 -21 5 0 8 6 12 14 9 7 -3 10 -9 7 -14z
m2666 -13 c0 -3 -4 -8 -10 -11 -5 -3 -10 -1 -10 4 0 6 5 11 10 11 6 0 10 -2
10 -4z m6855 -66 c3 -5 1 -10 -4 -10 -6 0 -11 5 -11 10 0 6 2 10 4 10 3 0 8
-4 11 -10z m-24 -43 c-10 -9 -11 -8 -5 6 3 10 9 15 12 12 3 -3 0 -11 -7 -18z
m-6877 -83 c3 -8 2 -12 -4 -9 -6 3 -10 10 -10 16 0 14 7 11 14 -7z m-2626 -19
c-3 -3 -9 2 -12 12 -6 14 -5 15 5 6 7 -7 10 -15 7 -18z m-3 -55 c3 -5 1 -10
-4 -10 -6 0 -11 5 -11 10 0 6 2 10 4 10 3 0 8 -4 11 -10z m4 -124 c9 -11 9
-16 -1 -22 -7 -4 -10 -4 -6 1 4 4 3 14 -3 22 -6 7 -9 13 -6 13 2 0 10 -6 16
-14z m1951 -16 c0 -5 -5 -10 -11 -10 -5 0 -7 5 -4 10 3 6 8 10 11 10 2 0 4 -4
4 -10z m700 4 c0 -8 -19 -13 -24 -6 -3 5 1 9 9 9 8 0 15 -2 15 -3z m-3172
-174 c-7 -10 -14 -18 -15 -16 -6 6 9 36 18 36 5 0 4 -9 -3 -20z m5659 -226
c-3 -3 -12 -4 -19 -1 -8 3 -5 6 6 6 11 1 17 -2 13 -5z m-2407 -80 c0 -8 -19
-13 -24 -6 -3 5 1 9 9 9 8 0 15 -2 15 -3z m6843 -19 c-3 -9 -8 -14 -10 -11 -3
3 -2 9 2 15 9 16 15 13 8 -4z m-10147 -10 c-1 -8 -5 -17 -8 -21 -5 -4 -4 16 1
34 3 9 9 -1 7 -13z m5659 -35 c-3 -5 -11 -10 -16 -10 -6 0 -7 5 -4 10 3 6 11
10 16 10 6 0 7 -4 4 -10z m-3255 -14 c0 -2 -7 -7 -16 -10 -8 -3 -12 -2 -9 4 6
10 25 14 25 6z m-40 -80 c0 -3 -4 -8 -10 -11 -5 -3 -10 -1 -10 4 0 6 5 11 10
11 6 0 10 -2 10 -4z m1024 -14 c3 -5 -1 -9 -9 -9 -8 0 -12 4 -9 9 3 4 7 8 9 8
2 0 6 -4 9 -8z m2230 0 c3 -5 -1 -9 -9 -9 -8 0 -12 4 -9 9 3 4 7 8 9 8 2 0 6
-4 9 -8z m-4909 -82 c3 -6 -1 -7 -9 -4 -18 7 -21 14 -7 14 6 0 13 -4 16 -10z
m2950 -289 c3 -5 1 -12 -5 -16 -5 -3 -10 1 -10 9 0 18 6 21 15 7z m1505 -117
c0 -8 -5 -12 -10 -9 -6 4 -8 11 -5 16 9 14 15 11 15 -7z m2720 -90 c0 -8 4
-13 8 -10 13 8 11 -28 -2 -36 -8 -5 -7 -8 2 -8 10 0 10 -5 1 -21 -8 -16 -8
-20 1 -14 9 6 9 3 1 -13 -14 -27 -14 -45 1 -36 7 4 8 3 4 -5 -4 -6 -11 -9 -16
-6 -4 3 -11 -2 -14 -11 -5 -12 -2 -15 10 -10 14 5 15 4 4 -9 -7 -8 -16 -12
-21 -9 -5 3 -9 -2 -9 -11 0 -9 5 -13 10 -10 6 3 10 1 10 -4 0 -6 -4 -11 -10
-11 -5 0 -10 -5 -10 -11 0 -5 6 -7 13 -3 10 6 10 4 0 -7 -7 -7 -13 -26 -13
-42 0 -18 -4 -26 -11 -21 -8 4 -9 -1 -4 -16 4 -13 3 -20 -2 -17 -5 3 -14 -3
-21 -14 -7 -10 -8 -19 -3 -19 5 0 7 -9 4 -20 -3 -10 -8 -19 -12 -18 -19 2 -24
-3 -11 -12 10 -6 11 -10 3 -10 -7 0 -13 -7 -13 -15 0 -8 -5 -15 -11 -15 -6 0
-8 -9 -4 -20 4 -12 2 -20 -6 -20 -9 0 -9 -3 1 -15 10 -12 8 -14 -9 -10 -13 2
-19 0 -15 -6 3 -5 0 -17 -8 -26 -9 -12 -10 -15 0 -9 10 6 10 2 0 -18 -6 -14
-15 -26 -20 -26 -5 0 -6 -4 -3 -10 3 -5 2 -10 -3 -10 -6 0 -13 -7 -16 -16 -4
-10 -2 -13 7 -8 9 5 9 4 0 -7 -7 -7 -13 -21 -13 -30 0 -10 -5 -21 -12 -25 -7
-5 -9 -2 -4 7 4 8 0 5 -8 -5 -12 -15 -13 -22 -4 -27 9 -6 8 -10 -5 -15 -14 -5
-15 -9 -6 -20 9 -11 9 -14 0 -14 -7 0 -9 -5 -6 -10 4 -6 3 -10 -2 -9 -21 4
-30 -2 -30 -18 0 -10 -3 -31 -8 -46 -5 -21 -10 -25 -16 -15 -7 10 -9 9 -9 -4
0 -10 -6 -18 -12 -18 -9 0 -8 -4 2 -10 11 -7 11 -10 2 -10 -7 0 -11 -4 -7 -9
3 -6 -4 -15 -15 -21 -11 -6 -18 -15 -15 -21 4 -5 2 -9 -4 -9 -6 0 -8 -7 -5
-15 4 -9 0 -15 -10 -15 -9 0 -16 -5 -16 -11 0 -5 -4 -8 -9 -4 -6 3 -8 -4 -6
-15 2 -11 0 -18 -4 -15 -5 2 -15 -3 -22 -12 -8 -10 -9 -14 -2 -10 6 4 15 3 18
-3 4 -6 3 -10 -2 -9 -17 3 -33 -1 -30 -9 3 -12 -40 -62 -47 -54 -4 3 -4 -2 0
-12 5 -13 4 -17 -4 -12 -7 4 -15 -8 -22 -34 -6 -22 -13 -40 -16 -40 -4 0 -4 7
0 15 12 31 -6 13 -20 -20 -8 -19 -19 -35 -24 -35 -6 0 -10 -7 -10 -16 0 -9 -5
-12 -12 -8 -7 5 -9 2 -5 -8 4 -11 -1 -18 -15 -21 -11 -3 -18 -12 -16 -19 3 -7
-1 -19 -9 -26 -7 -8 -11 -17 -8 -22 3 -5 -4 -11 -15 -15 -11 -4 -18 -11 -15
-16 4 -5 1 -9 -4 -9 -6 0 -11 -9 -11 -21 0 -15 -5 -19 -16 -15 -11 4 -14 1
-12 -13 2 -13 -13 -34 -42 -61 -25 -23 -44 -43 -42 -46 1 -2 2 -10 2 -16 0 -9
-4 -8 -10 2 -8 13 -10 13 -10 -2 0 -12 -5 -15 -17 -11 -10 4 -14 2 -10 -4 4
-6 0 -14 -9 -17 -8 -3 -12 -11 -8 -17 4 -8 3 -9 -4 -5 -7 4 -12 2 -12 -5 0 -7
-3 -10 -6 -6 -7 7 -33 -15 -28 -24 7 -11 -46 -40 -59 -32 -7 4 -6 -1 3 -13 8
-10 10 -16 6 -12 -5 5 -16 -1 -24 -13 -9 -13 -20 -18 -31 -14 -13 5 -13 4 -4
-6 19 -19 -4 -44 -24 -27 -8 6 -13 7 -12 2 4 -19 -14 -46 -38 -55 -13 -5 -21
-14 -18 -19 3 -6 -1 -13 -9 -16 -9 -3 -13 -10 -10 -15 3 -5 0 -9 -6 -9 -6 0
-8 -4 -5 -10 3 -6 -1 -7 -9 -4 -14 5 -20 -4 -18 -27 0 -3 -9 -11 -21 -18 -18
-11 -20 -11 -9 0 6 7 12 18 12 23 0 6 -8 -1 -17 -14 -10 -14 -17 -29 -15 -34
2 -5 -4 -3 -13 4 -13 11 -14 10 -9 -5 5 -13 4 -16 -4 -11 -7 4 -12 2 -12 -3 0
-6 -7 -11 -16 -11 -10 0 -14 -6 -11 -14 4 -11 1 -13 -10 -9 -12 5 -14 3 -8 -7
5 -9 4 -11 -3 -6 -7 4 -23 -5 -38 -21 -14 -15 -23 -21 -19 -13 4 9 0 8 -8 -3
-9 -10 -19 -19 -24 -20 -4 -1 -7 -5 -5 -9 1 -5 -7 -8 -17 -8 -10 0 -22 -7 -25
-15 -3 -9 -19 -21 -36 -26 -16 -6 -30 -17 -30 -25 0 -7 -15 -16 -35 -20 -19
-3 -32 -10 -29 -15 3 -5 0 -9 -6 -9 -6 0 -9 -4 -5 -9 3 -6 -3 -8 -14 -6 -13 2
-22 -3 -26 -16 -4 -11 -9 -18 -13 -15 -3 3 -12 -3 -19 -14 -8 -11 -19 -18 -24
-15 -5 4 -9 1 -9 -5 0 -7 -7 -9 -16 -6 -15 6 -15 4 -3 -11 10 -12 10 -15 1 -9
-7 4 -20 2 -29 -6 -14 -11 -16 -11 -8 1 6 10 4 12 -4 7 -7 -5 -10 -15 -7 -23
4 -11 2 -13 -9 -9 -8 3 -15 1 -15 -3 0 -5 -10 -7 -22 -3 -14 3 -19 2 -14 -6 4
-7 1 -12 -8 -12 -8 0 -20 -8 -25 -17 -6 -10 -11 -13 -11 -8 0 6 -5 3 -10 -5
-8 -13 -10 -12 -10 3 0 15 -3 14 -22 -5 -13 -13 -22 -27 -20 -32 2 -5 -4 -4
-12 4 -12 9 -16 9 -16 1 0 -7 -4 -10 -9 -6 -5 3 -13 0 -17 -6 -4 -8 -9 -7 -15
2 -7 11 -9 10 -9 -4 0 -9 -6 -16 -12 -15 -7 2 -12 -3 -10 -11 3 -12 0 -12 -12
-1 -12 9 -16 9 -16 1 0 -8 -8 -10 -19 -6 -11 3 -23 0 -27 -6 -5 -8 -3 -9 6 -4
8 5 11 4 6 -3 -4 -6 -14 -8 -23 -5 -10 4 -14 2 -10 -4 3 -5 0 -10 -8 -10 -8 0
-12 4 -9 9 3 4 -2 5 -10 2 -9 -3 -14 -9 -11 -13 2 -4 -9 -7 -25 -6 -17 1 -30
-3 -30 -8 0 -5 -6 -4 -14 2 -11 9 -14 8 -12 -6 0 -10 -5 -18 -11 -19 -7 -1
-16 -3 -20 -4 -5 -2 -24 -4 -43 -5 -21 -1 -34 -7 -32 -14 3 -13 -45 -34 -59
-25 -5 3 -9 0 -9 -7 0 -6 -8 -9 -20 -6 -11 3 -20 1 -20 -4 0 -5 5 -9 12 -9 6
0 9 -3 5 -6 -3 -3 -12 -2 -19 2 -20 13 -37 13 -45 2 -3 -6 -1 -8 5 -4 6 3 13
3 16 -2 3 -5 -9 -8 -27 -7 -18 1 -35 -3 -39 -9 -5 -7 -8 -6 -8 3 0 10 -3 11
-14 2 -9 -7 -17 -8 -20 -2 -9 14 -48 1 -42 -14 5 -14 -19 -14 -31 0 -4 4 -2 5
6 0 10 -5 12 -4 7 4 -4 6 -12 9 -17 5 -5 -3 -7 -10 -4 -15 4 -5 -5 -9 -19 -9
-14 0 -26 -5 -26 -11 0 -8 -5 -8 -15 1 -10 8 -15 9 -15 2 0 -7 -7 -9 -17 -5
-11 5 -14 3 -8 -6 6 -10 3 -11 -14 -2 -18 10 -20 9 -14 -5 5 -13 3 -15 -7 -9
-10 6 -12 4 -6 -10 6 -18 6 -18 -15 1 -12 10 -19 13 -14 5 6 -11 4 -13 -8 -8
-10 4 -17 2 -17 -5 0 -7 -4 -7 -14 1 -11 9 -17 8 -28 -8 -19 -27 -62 -43 -77
-28 -7 7 -11 7 -11 0 0 -9 -22 -10 -55 -3 -5 1 -12 1 -15 0 -20 -7 -46 -7 -61
1 -11 5 -20 5 -23 0 -4 -5 -14 -8 -24 -7 -9 2 -23 -6 -31 -16 -7 -11 -19 -17
-27 -14 -7 3 -16 1 -19 -4 -10 -16 -25 -11 -25 8 0 13 -2 14 -9 4 -4 -7 -32
-15 -61 -18 -29 -2 -57 -7 -63 -11 -6 -3 -7 -1 -3 5 4 7 2 12 -3 12 -6 0 -11
-6 -11 -12 0 -9 -4 -8 -10 2 -6 10 -10 11 -10 3 0 -8 -11 -11 -30 -9 -17 2
-33 -1 -37 -7 -3 -5 -1 -7 5 -3 6 3 14 1 18 -5 4 -8 3 -9 -4 -5 -7 4 -12 2
-12 -4 0 -6 -8 -4 -17 5 -16 16 -17 16 -29 0 -7 -9 -17 -14 -23 -10 -6 3 -11
0 -11 -7 0 -9 -3 -9 -10 2 -6 10 -10 11 -10 3 0 -9 -7 -10 -22 -4 -13 5 -33 7
-46 5 -17 -3 -21 0 -16 8 6 10 5 10 -8 1 -8 -7 -18 -10 -22 -6 -10 10 -46 11
-52 1 -3 -5 -13 -1 -21 9 -8 10 -12 13 -9 6 4 -6 2 -15 -4 -18 -6 -4 -10 -3
-9 2 1 4 1 14 0 22 -1 11 -4 11 -18 0 -15 -12 -16 -12 -11 2 5 14 -1 16 -38
14 -25 -1 -47 2 -50 7 -3 5 -12 4 -20 -3 -11 -9 -14 -8 -14 2 0 11 -2 11 -9 1
-9 -14 -32 -13 -43 3 -5 7 -8 6 -8 0 0 -13 -129 -13 -149 -1 -10 6 -12 5 -7
-2 13 -21 -12 -13 -34 11 -20 20 -21 20 -15 2 5 -14 4 -16 -3 -7 -5 8 -8 27
-7 43 1 16 -1 26 -6 23 -5 -3 -6 -10 -2 -17 3 -6 -9 -1 -29 11 -19 12 -37 19
-41 16 -10 -10 -42 -11 -54 -2 -7 5 -18 6 -24 2 -7 -4 -9 -3 -6 3 4 6 -3 19
-15 29 -12 11 -18 14 -15 7 5 -8 0 -11 -13 -10 -11 1 -20 5 -20 9 0 4 -6 8
-14 8 -9 0 -12 7 -9 21 4 16 8 17 14 7 7 -10 9 -9 9 5 0 9 6 17 14 17 8 0 17
7 20 16 3 8 10 12 16 9 9 -6 14 8 11 28 -1 4 7 7 16 5 10 -2 18 2 18 7 1 16
38 55 53 55 7 0 10 5 7 10 -6 9 7 14 27 11 4 0 4 7 1 16 -4 11 -3 14 5 9 7 -4
12 -1 12 8 0 14 18 21 42 17 5 0 7 2 7 7 -4 23 3 34 17 28 11 -4 15 -2 11 8
-3 8 2 16 15 19 11 3 17 10 14 16 -4 6 2 8 14 6 11 -2 18 0 15 6 -4 5 -1 9 4
9 6 0 11 7 11 15 0 8 6 12 14 9 8 -3 17 0 22 7 5 8 3 10 -7 5 -8 -4 -3 1 11
12 13 11 28 18 32 16 4 -3 8 4 8 15 0 12 6 21 13 22 9 0 9 2 0 5 -15 6 15 44
34 44 7 0 13 6 13 13 0 8 36 47 79 88 44 40 77 77 75 81 -2 3 5 9 16 13 11 3
20 13 20 22 0 9 6 13 14 10 10 -4 13 -1 10 7 -3 8 0 17 7 22 8 5 10 3 4 -6 -5
-9 -4 -11 3 -6 7 4 12 13 12 20 0 7 11 21 24 32 14 10 23 21 20 26 -3 4 2 8
10 8 17 0 39 34 28 44 -3 4 2 4 12 0 13 -5 17 -4 13 3 -4 6 0 14 9 17 8 3 12
11 8 17 -4 7 -3 9 3 6 12 -8 37 18 30 30 -2 4 5 17 16 28 11 12 17 14 13 5 -4
-8 -1 -6 8 4 8 10 13 22 11 27 -3 4 0 11 6 15 8 5 9 3 4 -6 -5 -9 -4 -11 4 -6
7 5 16 19 21 32 5 13 13 23 17 22 5 -2 8 1 8 5 0 5 8 13 18 18 9 6 15 14 12
20 -4 5 1 9 9 9 8 0 17 9 21 19 3 11 12 22 20 25 8 3 15 13 15 21 0 9 4 14 9
11 5 -3 12 5 15 19 4 14 13 25 21 25 8 0 15 8 15 18 0 14 2 15 10 2 8 -13 10
-13 10 2 0 9 6 21 14 25 8 4 15 13 15 18 1 6 6 11 11 11 6 1 12 2 15 3 3 0 6
0 8 -1 2 -2 14 9 28 23 13 15 29 28 34 30 6 2 9 7 7 12 -1 4 4 7 11 7 7 0 21
14 31 30 9 17 22 28 27 25 8 -5 13 7 11 26 -1 3 10 12 23 19 14 7 25 22 25 32
0 10 5 18 11 18 5 0 7 6 3 13 -6 9 -4 9 8 -1 14 -11 16 -11 14 4 -2 10 8 28
22 40 13 13 21 28 17 33 -5 10 7 15 27 12 4 0 5 5 2 13 -3 7 2 16 10 19 9 4
13 15 11 26 -2 11 1 24 7 27 7 4 8 2 4 -4 -4 -7 -3 -12 2 -12 10 0 36 58 34
72 -1 4 6 4 16 1 9 -3 14 -2 9 2 -4 5 0 19 8 32 9 13 13 29 9 35 -4 6 -3 8 3
5 6 -4 19 3 29 15 13 15 14 19 4 14 -8 -4 -6 0 4 8 11 9 24 16 29 16 4 0 6 4
3 9 -3 4 4 17 17 27 21 19 21 19 7 -1 -14 -18 -14 -19 2 -7 10 8 17 17 16 20
-3 23 3 42 12 37 9 -5 14 7 12 26 -1 8 39 45 44 42 2 -2 4 -1 4 2 -1 10 25 33
31 29 4 -2 10 3 13 12 4 10 2 13 -7 8 -6 -4 -4 2 7 14 10 12 23 19 27 16 5 -3
9 2 9 10 0 9 4 16 10 16 5 0 6 7 3 17 -4 11 -3 14 5 9 7 -4 12 -1 12 8 0 9 5
16 11 16 5 0 7 -5 3 -12 -4 -7 -3 -8 5 -4 9 6 9 11 0 22 -10 12 -10 15 2 12 8
-2 13 3 11 11 -3 12 -1 12 14 0 12 -9 15 -9 10 -1 -4 6 -5 12 -2 12 2 0 12 3
22 7 12 4 15 3 10 -5 -5 -8 -2 -10 8 -6 9 3 16 11 16 18 0 6 5 4 10 -4 5 -8
10 -10 10 -5 0 13 63 13 72 0 5 -6 8 -6 8 2 0 7 11 10 28 9 15 -2 30 2 34 8 5
8 8 7 8 -2 0 -10 5 -10 21 -1 15 8 19 8 15 0 -10 -15 5 -14 29 2 11 7 30 12
43 11 15 -1 21 3 18 11 -3 10 2 11 24 5 19 -5 37 -4 54 6 15 7 24 10 22 5 -3
-4 1 -8 9 -8 8 0 12 4 10 8 -8 13 22 18 35 6 10 -10 12 -8 6 7 -5 16 -4 17 9
6 10 -9 15 -9 15 -1 0 6 15 11 33 11 66 -1 76 1 82 10 4 6 12 7 18 3 20 -13
55 -10 50 4 -3 7 -1 13 3 14 5 0 18 2 29 4 11 2 23 -1 27 -8 5 -9 10 -9 20 1
6 6 24 12 39 12 15 0 31 5 34 10 5 8 11 7 21 -1 11 -9 14 -8 14 2 0 9 3 10 8
4 9 -14 83 -15 75 -2 -4 6 0 8 10 4 9 -3 16 -3 16 1 -3 19 2 23 16 12 13 -11
14 -10 8 5 -5 15 -3 17 12 12 9 -4 24 -2 31 4 10 8 14 8 14 0 0 -13 22 -10 32
4 5 6 8 5 8 -4 0 -10 3 -11 14 -2 11 9 15 9 19 -1 4 -9 6 -7 6 4 1 9 6 20 13
24 8 5 9 2 4 -11 -5 -14 -4 -16 7 -7 8 7 18 8 23 4 4 -4 3 0 -4 9 -10 13 -7
15 21 13 17 -1 42 5 54 12 17 11 21 11 18 2 -3 -8 4 -13 19 -13 13 0 22 3 20
7 -2 4 6 8 18 10 13 2 22 8 21 14 -1 6 4 11 12 11 8 0 11 -5 8 -11 -5 -8 -2
-8 8 0 21 16 58 24 65 13 4 -6 11 -6 18 0 7 6 16 8 19 4 4 -3 7 0 7 8 0 11 2
11 10 -1 6 -9 10 -11 10 -3 0 7 7 10 17 6 12 -5 15 -2 11 8 -5 13 4 15 48 13
30 -1 54 2 54 7 0 6 8 5 20 -1 12 -6 20 -7 20 -1 0 5 12 8 26 6 16 -1 23 2 21
9 -3 7 4 13 15 13 17 2 18 0 7 -15 -8 -9 -2 -7 12 5 20 18 28 20 39 10 10 -10
11 -9 5 2 -6 11 -4 13 8 8 10 -4 17 -1 17 6 0 8 4 6 10 -3 6 -9 10 -10 10 -3
0 7 10 10 26 7 20 -4 25 -1 21 9 -4 10 4 13 33 13 31 -1 36 1 28 12 -9 10 -6
11 16 3 19 -8 26 -7 26 1 0 6 3 8 7 5 3 -4 13 -1 21 6 13 10 14 9 8 -1 -7 -11
-4 -12 11 -3 11 6 24 7 28 3 5 -4 5 2 1 13 -4 11 -4 16 0 12 4 -4 14 -1 23 6
14 11 14 10 2 -6 -13 -16 -11 -16 23 -2 20 9 41 13 46 10 6 -4 10 -2 10 3 0 5
13 8 29 7 19 -1 28 3 27 13 -1 10 10 16 32 18 22 2 30 -1 25 -9 -5 -9 -3 -9 8
0 8 7 24 12 34 13 71 3 76 4 58 19 -16 12 -16 13 -1 8 10 -3 20 -2 23 3 10 15
25 12 25 -6z m-3823 -20 c-9 -9 -28 6 -21 18 4 6 10 6 17 -1 6 -6 8 -13 4 -17z
m5708 -14 c3 -5 1 -10 -4 -10 -6 0 -11 5 -11 10 0 6 2 10 4 10 3 0 8 -4 11
-10z m-8780 -160 c3 -6 -1 -7 -9 -4 -18 7 -21 14 -7 14 6 0 13 -4 16 -10z
m8580 -140 c-3 -5 -12 -10 -18 -10 -7 0 -6 4 3 10 19 12 23 12 15 0z m-25 -54
c0 -3 -4 -8 -10 -11 -5 -3 -10 -1 -10 4 0 6 5 11 10 11 6 0 10 -2 10 -4z
m-9540 -91 c0 -8 -4 -15 -8 -15 -5 0 -9 7 -9 15 0 8 4 15 9 15 4 0 8 -7 8 -15z
m9285 -264 c3 -6 -5 -15 -17 -21 -21 -10 -22 -10 -5 3 14 11 15 16 5 20 -9 4
-9 6 -1 6 6 1 14 -3 18 -8z m-224 -294 c-6 -6 -18 -12 -27 -13 -9 -1 -13 1 -9
4 4 4 12 7 18 7 7 1 11 7 9 14 -1 7 2 9 9 6 8 -5 8 -10 0 -18z m-7269 -64 c-6
-2 -10 -8 -8 -12 3 -4 -1 -8 -9 -8 -11 0 -12 4 -4 14 6 7 17 13 23 12 7 0 6
-2 -2 -6z m7149 -46 c-10 -9 -11 -8 -5 6 3 10 9 15 12 12 3 -3 0 -11 -7 -18z
m-7164 -42 c0 -8 -4 -12 -9 -9 -5 3 -6 10 -3 15 9 13 12 11 12 -6z m-7 -39 c0
-2 -7 -7 -16 -10 -8 -3 -12 -2 -9 4 6 10 25 14 25 6z m7080 -1 c0 -2 -6 -8
-13 -14 -10 -8 -14 -7 -14 2 0 8 6 14 14 14 7 0 13 -1 13 -2z m-100 -91 c0 -8
-19 -13 -24 -6 -3 5 1 9 9 9 8 0 15 -2 15 -3z m-665 -574 c-3 -5 -12 -10 -18
-10 -7 0 -6 4 3 10 19 12 23 12 15 0z m-260 -200 c3 -6 -1 -7 -9 -4 -18 7 -21
14 -7 14 6 0 13 -4 16 -10z m-201 -98 c3 -5 -1 -9 -9 -9 -8 0 -12 4 -9 9 3 4
7 8 9 8 2 0 6 -4 9 -8z m54 -7 c-2 -1 -14 -8 -28 -15 l-25 -13 20 20 c11 11
24 18 28 16 5 -3 7 -6 5 -8z m-258 -135 c0 -5 -5 -10 -11 -10 -5 0 -7 5 -4 10
3 6 8 10 11 10 2 0 4 -4 4 -10z m-100 -40 c0 -5 -5 -10 -11 -10 -5 0 -7 5 -4
10 3 6 8 10 11 10 2 0 4 -4 4 -10z m-87 -35 c-3 -9 -8 -14 -10 -11 -3 3 -2 9
2 15 9 16 15 13 8 -4z m-223 -99 c0 -2 -8 -10 -17 -17 -16 -13 -17 -12 -4 4
13 16 21 21 21 13z m-1737 -221 c-3 -9 -8 -14 -10 -11 -3 3 -2 9 2 15 9 16 15
13 8 -4z m-1813 -45 c0 -5 -5 -10 -11 -10 -5 0 -7 5 -4 10 3 6 8 10 11 10 2 0
4 -4 4 -10z m958 -145 c-3 -3 -9 2 -12 12 -6 14 -5 15 5 6 7 -7 10 -15 7 -18z
m-3499 -158 c-2 -3 -15 10 -28 27 l-24 31 28 -27 c16 -15 27 -29 24 -31z m631
-757 c0 -5 -5 -10 -11 -10 -5 0 -7 5 -4 10 3 6 8 10 11 10 2 0 4 -4 4 -10z"/>
<path d="M4904 8742 c4 -3 14 -7 22 -8 9 -1 13 0 10 4 -4 3 -14 7 -22 8 -9 1
-13 0 -10 -4z"/>
<path d="M5017 8723 c3 -7 6 -13 8 -13 2 0 5 6 8 13 3 8 -1 14 -8 14 -7 0 -11
-6 -8 -14z"/>
<path d="M5046 8723 c-6 -14 -5 -15 5 -6 7 7 10 15 7 18 -3 3 -9 -2 -12 -12z"/>
<path d="M5176 8727 c3 -10 9 -15 12 -12 3 3 0 11 -7 18 -10 9 -11 8 -5 -6z"/>
<path d="M4145 8150 c22 -24 22 -24 22 -5 0 8 -4 12 -9 9 -4 -3 -8 0 -8 5 0 6
-5 11 -12 11 -6 0 -3 -9 7 -20z"/>
<path d="M7063 8065 c0 -8 4 -12 9 -9 5 3 6 10 3 15 -9 13 -12 11 -12 -6z"/>
<path d="M7175 7989 c-4 -6 -5 -12 -2 -15 2 -3 7 2 10 11 7 17 1 20 -8 4z"/>
<path d="M4506 7788 c3 -5 10 -6 15 -3 13 9 11 12 -6 12 -8 0 -12 -4 -9 -9z"/>
<path d="M7880 7201 c0 -10 19 -25 25 -20 1 2 -3 10 -11 17 -8 7 -14 8 -14 3z"/>
<path d="M8040 6986 c0 -2 7 -7 16 -10 8 -3 12 -2 9 4 -6 10 -25 14 -25 6z"/>
<path d="M8096 6922 c-3 -5 1 -9 9 -9 8 0 12 4 9 9 -3 4 -7 8 -9 8 -2 0 -6 -4
-9 -8z"/>
<path d="M5285 6860 c-3 -5 -1 -10 4 -10 6 0 11 5 11 10 0 6 -2 10 -4 10 -3 0
-8 -4 -11 -10z"/>
<path d="M5385 6761 c-3 -5 -2 -12 3 -15 5 -3 9 1 9 9 0 17 -3 19 -12 6z"/>
<path d="M5677 6653 c-3 -5 4 -15 16 -23 21 -12 21 -12 7 6 -8 10 -15 20 -16
22 -1 2 -4 -1 -7 -5z"/>
<path d="M6146 6562 c-3 -5 1 -9 9 -9 8 0 15 4 15 9 0 4 -4 8 -9 8 -6 0 -12
-4 -15 -8z"/>
<path d="M7175 6380 c3 -5 8 -10 11 -10 2 0 4 5 4 10 0 6 -5 10 -11 10 -5 0
-7 -4 -4 -10z"/>
<path d="M8070 6150 c-8 -5 -12 -11 -9 -14 2 -3 11 -1 19 4 8 5 12 11 9 14 -2
3 -11 1 -19 -4z"/>
<path d="M8370 6110 c0 -5 5 -10 11 -10 5 0 7 5 4 10 -3 6 -8 10 -11 10 -2 0
-4 -4 -4 -10z"/>
<path d="M8400 6106 c0 -2 8 -10 18 -17 15 -13 16 -12 3 4 -13 16 -21 21 -21
13z"/>
<path d="M1573 7885 c0 -8 4 -12 9 -9 5 3 6 10 3 15 -9 13 -12 11 -12 -6z"/>
<path d="M1605 7891 c-3 -5 -2 -12 3 -15 5 -3 9 1 9 9 0 17 -3 19 -12 6z"/>
<path d="M1766 7462 c-2 -4 -1 -14 4 -22 7 -11 9 -9 7 8 -1 24 -3 26 -11 14z"/>
<path d="M1790 7376 c0 -2 8 -10 18 -17 15 -13 16 -12 3 4 -13 16 -21 21 -21
13z"/>
<path d="M906 6931 c-3 -5 1 -11 9 -14 9 -4 12 -1 8 9 -6 16 -10 17 -17 5z"/>
<path d="M2182 6168 c7 -13 11 -27 10 -31 -1 -5 2 -6 8 -2 6 4 4 15 -6 31 -20
30 -29 32 -12 2z"/>
<path d="M2295 5820 c-3 -5 1 -10 10 -10 9 0 13 5 10 10 -3 6 -8 10 -10 10 -2
0 -7 -4 -10 -10z"/>
<path d="M603 5595 c0 -8 4 -12 9 -9 5 3 6 10 3 15 -9 13 -12 11 -12 -6z"/>
<path d="M765 4260 c4 -6 11 -8 16 -5 14 9 11 15 -7 15 -8 0 -12 -5 -9 -10z"/>
<path d="M2183 4045 c0 -8 4 -15 9 -15 4 0 8 4 8 9 0 6 -4 12 -8 15 -5 3 -9
-1 -9 -9z"/>
<path d="M2115 3840 c-3 -5 -1 -10 4 -10 6 0 11 5 11 10 0 6 -2 10 -4 10 -3 0
-8 -4 -11 -10z"/>
<path d="M2105 3809 c-11 -16 -1 -19 13 -3 7 8 8 14 3 14 -5 0 -13 -5 -16 -11z"/>
<path d="M1926 3233 c-6 -14 -5 -15 5 -6 7 7 10 15 7 18 -3 3 -9 -2 -12 -12z"/>
<path d="M1904 3142 c3 -5 0 -13 -6 -15 -9 -4 -10 -6 -1 -6 17 -1 25 16 12 25
-7 4 -9 3 -5 -4z"/>
<path d="M1490 2886 c0 -2 7 -7 16 -10 8 -3 12 -2 9 4 -6 10 -25 14 -25 6z"/>
<path d="M1775 2789 c-4 -6 -5 -12 -2 -15 2 -3 7 2 10 11 7 17 1 20 -8 4z"/>
<path d="M1757 2727 c-3 -8 -2 -20 3 -26 5 -9 8 -4 8 13 0 29 -3 32 -11 13z"/>
<path d="M4705 6270 c-3 -6 1 -7 9 -4 18 7 21 14 7 14 -6 0 -13 -4 -16 -10z"/>
<path d="M4117 6233 c-4 -3 -7 -11 -7 -17 0 -6 5 -5 12 2 6 6 9 14 7 17 -3 3
-9 2 -12 -2z"/>
<path d="M3900 6145 c-7 -9 -10 -18 -6 -22 3 -3 6 -1 6 6 0 7 4 10 8 7 5 -3 9
1 9 9 0 19 -2 19 -17 0z"/>
<path d="M5085 6130 c-3 -6 1 -7 9 -4 9 3 16 1 16 -5 0 -6 5 -11 11 -11 8 0 8
5 -1 15 -14 17 -26 19 -35 5z"/>
<path d="M3295 5519 c-4 -6 -5 -12 -2 -15 2 -3 7 2 10 11 7 17 1 20 -8 4z"/>
<path d="M3246 5163 c-6 -14 -5 -15 5 -6 7 7 10 15 7 18 -3 3 -9 -2 -12 -12z"/>
<path d="M5462 4210 c-12 -12 -22 -24 -22 -27 0 -4 11 4 25 17 23 22 29 30 22
30 -2 0 -13 -9 -25 -20z"/>
<path d="M4950 3860 c0 -5 5 -10 10 -10 6 0 10 5 10 10 0 6 -4 10 -10 10 -5 0
-10 -4 -10 -10z"/>
<path d="M4206 3838 c3 -5 10 -6 15 -3 13 9 11 12 -6 12 -8 0 -12 -4 -9 -9z"/>
<path d="M4796 3827 c3 -10 9 -15 12 -12 3 3 0 11 -7 18 -10 9 -11 8 -5 -6z"/>
<path d="M4570 3801 c0 -6 4 -13 10 -16 6 -3 7 1 4 9 -7 18 -14 21 -14 7z"/>
<path d="M7030 3666 c0 -2 7 -7 16 -10 8 -3 12 -2 9 4 -6 10 -25 14 -25 6z"/>
<path d="M6176 3488 c3 -5 10 -6 15 -3 13 9 11 12 -6 12 -8 0 -12 -4 -9 -9z"/>
<path d="M5240 3155 c-11 -13 -10 -14 4 -9 9 3 16 10 16 15 0 13 -6 11 -20 -6z"/>
<path d="M7160 2340 c-9 -6 -10 -10 -3 -10 6 0 15 5 18 10 8 12 4 12 -15 0z"/>
<path d="M4506 1894 c-11 -8 -14 -14 -7 -14 7 0 9 -5 5 -12 -6 -10 -5 -10 8
-1 8 7 17 10 21 7 3 -3 4 1 3 10 -3 24 -9 26 -30 10z"/>
<path d="M4015 1720 c-3 -5 -1 -10 4 -10 6 0 11 5 11 10 0 6 -2 10 -4 10 -3 0
-8 -4 -11 -10z"/>
<path d="M3985 1689 c-4 -6 -5 -12 -2 -15 2 -3 7 2 10 11 7 17 1 20 -8 4z"/>
<path d="M2870 10229 c0 -15 18 -19 23 -6 3 8 -1 14 -9 14 -8 0 -14 -4 -14 -8z"/>
<path d="M2426 10212 c-3 -5 1 -9 9 -9 8 0 12 4 9 9 -3 4 -7 8 -9 8 -2 0 -6
-4 -9 -8z"/>
<path d="M3150 10202 c0 -5 7 -9 15 -9 8 0 12 4 9 9 -3 4 -9 8 -15 8 -5 0 -9
-4 -9 -8z"/>
<path d="M3275 10200 c-3 -5 -1 -10 4 -10 6 0 11 5 11 10 0 6 -2 10 -4 10 -3
0 -8 -4 -11 -10z"/>
<path d="M4036 10157 c3 -10 9 -15 12 -12 3 3 0 11 -7 18 -10 9 -11 8 -5 -6z"/>
<path d="M1495 10060 c-4 -6 -11 -7 -17 -4 -7 4 -8 2 -4 -5 6 -8 12 -9 20 -2
7 6 17 7 21 3 5 -4 5 -1 1 6 -9 15 -13 15 -21 2z"/>
<path d="M4405 10060 c-3 -6 1 -7 9 -4 18 7 21 14 7 14 -6 0 -13 -4 -16 -10z"/>
<path d="M1377 9679 c7 -7 15 -10 18 -7 3 3 -2 9 -12 12 -14 6 -15 5 -6 -5z"/>
<path d="M1384 9652 c3 -5 0 -13 -6 -15 -9 -4 -10 -6 -1 -6 17 -1 25 16 12 25
-7 4 -9 3 -5 -4z"/>
<path d="M7491 8164 c0 -11 3 -14 6 -6 3 7 2 16 -1 19 -3 4 -6 -2 -5 -13z"/>
<path d="M1165 7750 c-3 -6 1 -7 9 -4 18 7 21 14 7 14 -6 0 -13 -4 -16 -10z"/>
<path d="M8045 7400 c3 -5 8 -10 11 -10 2 0 4 5 4 10 0 6 -5 10 -11 10 -5 0
-7 -4 -4 -10z"/>
<path d="M8996 5902 c-3 -5 1 -9 9 -9 8 0 12 4 9 9 -3 4 -7 8 -9 8 -2 0 -6 -4
-9 -8z"/>
<path d="M9175 5820 c-8 -13 9 -20 24 -11 10 6 9 10 -3 14 -8 3 -18 2 -21 -3z"/>
<path d="M9926 5532 c-3 -5 1 -9 9 -9 8 0 15 4 15 9 0 4 -4 8 -9 8 -6 0 -12
-4 -15 -8z"/>
<path d="M9823 3870 c-10 -15 -10 -21 0 -26 6 -4 9 -3 4 1 -4 5 0 17 10 27 9
10 12 18 7 18 -5 0 -15 -9 -21 -20z"/>
<path d="M9216 3001 c-14 -15 -15 -21 -4 -27 7 -4 10 -4 6 1 -4 4 2 16 14 26
11 11 17 19 11 19 -5 0 -18 -9 -27 -19z"/>
<path d="M9151 2916 c-8 -10 -9 -16 -1 -21 6 -4 9 -1 8 7 -2 7 3 12 10 10 8
-1 11 2 7 8 -8 13 -10 13 -24 -4z"/>
<path d="M7763 1703 c-13 -9 -23 -20 -23 -25 0 -5 7 -3 15 5 8 9 20 17 27 20
7 2 11 7 8 10 -3 2 -15 -2 -27 -10z"/>
<path d="M7536 1572 c-3 -5 1 -9 9 -9 8 0 12 4 9 9 -3 4 -7 8 -9 8 -2 0 -6 -4
-9 -8z"/>
</g>
</svg>
